<svg width="46" height="42" viewBox="0 0 46 42" fill="none" xmlns="http://www.w3.org/2000/svg">
<rect width="46" height="42" rx="5" fill="white" fill-opacity="0.08"/>
<g clip-path="url(#clip0_1154_420)">
<path d="M26.5078 17.885C27.1636 17.885 27.6953 17.3533 27.6953 16.6975C27.6953 16.0417 27.1636 15.51 26.5078 15.51C25.852 15.51 25.3203 16.0417 25.3203 16.6975C25.3203 17.3533 25.852 17.885 26.5078 17.885Z" fill="white" fill-opacity="0.51"/>
<path d="M31.795 17.6585C31.3987 16.6493 30.6719 15.1933 29.4603 13.9874C28.2529 12.7856 26.8123 12.0797 25.8164 11.699C24.723 11.2811 23.4805 11.5445 22.6511 12.37L19.7367 15.2708C18.8727 16.1307 18.6237 17.4538 19.117 18.5632C19.27 18.9072 19.4363 19.2438 19.6141 19.5689L13.2174 25.9656C13.0782 26.1048 13 26.2936 13 26.4904V29.7561C13 30.166 13.3323 30.4982 13.7422 30.4982H17.0078C17.4177 30.4982 17.75 30.166 17.75 29.7561V28.4201L19.0859 28.4201C19.4958 28.4201 19.8281 28.0878 19.8281 27.6779V26.342H21.164C21.5739 26.342 21.9062 26.0097 21.9062 25.5998C21.9062 25.1899 21.5739 24.8576 21.164 24.8576H19.0859C18.676 24.8576 18.3437 25.1899 18.3437 25.5998V26.9357L17.0078 26.9358C16.5979 26.9358 16.2656 27.268 16.2656 27.6779V29.0139H14.4844V26.7979L21.0659 20.2164C21.3077 19.9746 21.353 19.5989 21.1756 19.3066C20.9184 18.8826 20.6822 18.4296 20.4734 17.9601C20.2285 17.4093 20.3533 16.7514 20.7839 16.3228L23.6983 13.4221C24.1144 13.008 24.7378 12.8759 25.2865 13.0855C26.1483 13.4149 27.3903 14.0212 28.4132 15.0394C29.4424 16.0638 30.069 17.3241 30.4134 18.201C30.6283 18.7483 30.4977 19.3701 30.0807 19.7851L27.131 22.721C26.7015 23.1484 26.0604 23.2734 25.4976 23.0394C25.0335 22.8463 24.584 22.617 24.1617 22.3578C23.8124 22.1434 23.3554 22.2528 23.1409 22.6021C22.9265 22.9514 23.0359 23.4085 23.3852 23.6229C23.8733 23.9224 24.3922 24.1872 24.9276 24.4099C26.0461 24.8752 27.322 24.6251 28.1782 23.773L31.1278 20.8372C31.9644 20.0045 32.2263 18.7568 31.795 17.6585Z" fill="white" fill-opacity="0.51"/>
</g>
<defs>
<clipPath id="clip0_1154_420">
<rect width="19" height="19" fill="white" transform="translate(13 11.5)"/>
</clipPath>
</defs>
</svg>
