<svg width="46" height="42" viewBox="0 0 46 42" fill="none" xmlns="http://www.w3.org/2000/svg">
<rect width="46" height="42" rx="5" fill="white" fill-opacity="0.08"/>
<g clip-path="url(#clip0_1154_422)">
<path d="M21.2707 18.9965C20.6206 18.3464 19.5627 18.3464 18.9126 18.9965C18.2609 19.6482 18.2609 20.7029 18.9126 21.3546C19.2377 21.6797 19.6647 21.8422 20.0917 21.8422C20.5187 21.8422 20.9457 21.6797 21.2708 21.3546C21.9208 20.7045 21.9208 19.6466 21.2707 18.9965ZM20.4847 20.5686C20.268 20.7853 19.9153 20.7853 19.6986 20.5686C19.4814 20.3514 19.4814 19.9998 19.6986 19.7826C19.9159 19.5653 20.2674 19.5653 20.4847 19.7826C20.7014 19.9993 20.7014 20.3519 20.4847 20.5686Z" fill="white" fill-opacity="0.51"/>
<path d="M22.0559 24.4988C21.4058 23.8487 20.3479 23.8487 19.6978 24.4988C19.0461 25.1505 19.046 26.2052 19.6978 26.8569C20.3479 27.507 21.4057 27.5071 22.0559 26.8569C22.7075 26.2053 22.7076 25.1505 22.0559 24.4988ZM21.2698 26.0709C21.0531 26.2876 20.7005 26.2876 20.4838 26.0709C20.2666 25.8537 20.2666 25.5022 20.4838 25.2849C20.7011 25.0677 21.0526 25.0677 21.2698 25.2849C21.4871 25.5021 21.4871 25.8537 21.2698 26.0709Z" fill="white" fill-opacity="0.51"/>
<path d="M24.5732 22.4724C24.5393 22.1673 24.2643 21.9475 23.9594 21.9813L16.8851 22.7673C16.58 22.8013 16.3602 23.0761 16.3941 23.3811C16.428 23.6863 16.7029 23.9061 17.0078 23.8721L24.0822 23.0861C24.3873 23.0522 24.6071 22.7774 24.5732 22.4724Z" fill="white" fill-opacity="0.51"/>
<path d="M26.0434 15.8408L25.2574 15.0548C25.0404 14.8377 24.6884 14.8377 24.4714 15.0548C24.2543 15.2718 24.2543 15.6237 24.4714 15.8408L25.2574 16.6268C25.4744 16.8438 25.8264 16.8438 26.0434 16.6268C26.2605 16.4097 26.2605 16.0578 26.0434 15.8408Z" fill="white" fill-opacity="0.51"/>
<path d="M28.4008 18.1988L27.6148 17.4128C27.3978 17.1957 27.0459 17.1957 26.8288 17.4128C26.6118 17.6298 26.6118 17.9818 26.8288 18.1988L27.6148 18.9848C27.8318 19.2019 28.1838 19.2019 28.4008 18.9848C28.6179 18.7678 28.6179 18.4159 28.4008 18.1988Z" fill="white" fill-opacity="0.51"/>
<path d="M31.5112 18.2327L30.6028 17.3244C31.233 16.0594 30.9981 14.5076 29.9731 13.4826C28.9479 12.4574 27.396 12.2227 26.1308 12.8531L25.2788 12.0012C24.6286 11.3511 23.5708 11.3512 22.9208 12.0013L13.4888 21.4333C12.8371 22.085 12.837 23.1396 13.4888 23.7914L14.3653 24.6678C13.7828 25.9407 14.0558 27.4348 15.0384 28.4173C16.0272 29.4061 17.5291 29.6729 18.8005 29.0846L19.7605 30.0175C20.4108 30.6493 21.461 30.6413 22.1015 30.0006C23.3505 28.7516 30.7016 21.4005 30.7591 21.3431L31.5112 20.591C32.163 19.9393 32.163 18.8845 31.5112 18.2327ZM21.3155 29.2146C21.1018 29.4282 20.7518 29.4307 20.5351 29.2202L19.2831 28.0037C19.2826 28.0032 19.2821 28.0026 19.2816 28.0021C18.9685 27.698 18.5921 27.7955 18.413 28.0372C17.5666 28.4715 16.5081 28.3149 15.8244 27.6312C15.0929 26.8997 14.9648 25.7368 15.5197 24.8661C15.6598 24.6463 15.6284 24.3586 15.444 24.1744L14.2748 23.0053C14.0576 22.7881 14.0576 22.4366 14.2748 22.2193L20.204 16.2901L27.222 23.3081L21.3155 29.2146ZM30.7252 19.8048L30.3661 20.1639L29.9731 19.7709C29.7561 19.5539 29.4041 19.5539 29.1871 19.7709C28.97 19.988 28.97 20.3399 29.1871 20.5569L29.5801 20.95L28.008 22.5221L20.99 15.5041L22.5621 13.932L22.8988 14.2686C23.1158 14.4857 23.4678 14.4857 23.6848 14.2686C23.9018 14.0515 23.9018 13.6996 23.6848 13.4826L23.3481 13.146L23.7067 12.7873C23.9235 12.5706 24.2761 12.5707 24.4927 12.7873L25.6484 13.9427C25.838 14.1322 26.1357 14.1594 26.3565 14.0074C27.2381 13.4004 28.4285 13.5102 29.187 14.2687C29.9454 15.027 30.0553 16.2174 29.4485 17.099C29.2965 17.3198 29.3237 17.6176 29.5133 17.8072L30.7251 19.0188C30.9425 19.236 30.9425 19.5876 30.7252 19.8048Z" fill="white" fill-opacity="0.51"/>
</g>
<defs>
<clipPath id="clip0_1154_422">
<rect width="19" height="19" fill="white" transform="translate(13 11.5)"/>
</clipPath>
</defs>
</svg>
