<svg width="46" height="42" viewBox="0 0 46 42" fill="none" xmlns="http://www.w3.org/2000/svg">
<rect width="46" height="42" rx="5" fill="white" fill-opacity="0.08"/>
<path d="M22.6314 11.92C17.708 11.92 14.7914 14.8833 14.7914 19.9V22.9567C14.7914 28.1833 17.778 31.24 22.5147 31.24C25.2914 31.24 26.8547 30.5167 27.858 29.7467L27.228 28.6733C26.2247 29.49 24.7547 30.0267 22.4914 30.0267C18.5714 30.0267 16.0514 27.4133 16.0514 22.9567V19.9C16.0514 15.6533 18.478 13.1333 22.6314 13.1333C26.5047 13.1333 28.7914 15.28 28.7914 19.62V22.14C28.7914 24.0067 28.0914 24.9167 26.8547 24.9167C25.8747 24.8933 25.5247 24.4033 25.5247 23.5867V17.1933H24.4747L24.3347 18.08C23.868 17.3567 23.1214 16.9833 22.1414 16.9833C20.438 16.9833 19.248 18.1267 19.248 20.3667V22.8867C19.248 25.1733 20.508 26.34 22.1647 26.34C23.2847 26.34 24.078 25.8033 24.5214 24.94C24.918 25.6867 25.7347 26.1533 26.8547 26.13C28.6747 26.13 30.0514 24.7767 30.0514 22.14V19.62C30.0514 14.51 27.298 11.92 22.6314 11.92ZM22.3514 25.1033C21.2314 25.1033 20.508 24.45 20.508 22.8867V20.3667C20.508 18.8033 21.2314 18.1967 22.2814 18.1967C23.6814 18.1967 24.288 19.3167 24.288 20.3667V22.91C24.288 24.4267 23.4714 25.1033 22.3514 25.1033Z" fill="white" fill-opacity="0.51"/>
</svg>
