<svg width="46" height="42" viewBox="0 0 46 42" fill="none" xmlns="http://www.w3.org/2000/svg">
<rect width="46" height="42" rx="5" fill="white" fill-opacity="0.08"/>
<g clip-path="url(#clip0_1153_411)">
<path d="M28.5104 21.9896C27.5846 21.0638 26.4827 20.3785 25.2804 19.9636C26.5681 19.0767 27.4141 17.5924 27.4141 15.9141C27.4141 13.2045 25.2096 11 22.5 11C19.7904 11 17.5859 13.2045 17.5859 15.9141C17.5859 17.5924 18.4319 19.0767 19.7196 19.9636C18.5174 20.3785 17.4154 21.0638 16.4896 21.9896C14.8842 23.595 14 25.7296 14 28H15.3281C15.3281 24.0454 18.5454 20.8281 22.5 20.8281C26.4546 20.8281 29.6719 24.0454 29.6719 28H31C31 25.7296 30.1158 23.595 28.5104 21.9896ZM22.5 19.5C20.5227 19.5 18.9141 17.8914 18.9141 15.9141C18.9141 13.9368 20.5227 12.3281 22.5 12.3281C24.4773 12.3281 26.0859 13.9368 26.0859 15.9141C26.0859 17.8914 24.4773 19.5 22.5 19.5Z" fill="white" fill-opacity="0.51"/>
</g>
<defs>
<clipPath id="clip0_1153_411">
<rect width="17" height="17" fill="white" transform="translate(14 11)"/>
</clipPath>
</defs>
</svg>
