<svg width="16" height="16" viewBox="0 0 16 16" fill="none" xmlns="http://www.w3.org/2000/svg">
<path fill-rule="evenodd" clip-rule="evenodd" d="M7.27273 0H8.72727V1.49449C11.7612 1.82988 14.1701 4.23882 14.5055 7.27273H16V8.72727H14.5055C14.1701 11.7612 11.7612 14.1701 8.72727 14.5055V16H7.27273V14.5055C4.23882 14.1701 1.82988 11.7612 1.49449 8.72727H0V7.27273H1.49449C1.82988 4.23882 4.23882 1.82988 7.27273 1.49449V0ZM2.96065 8.72727H4.36364V7.27273H2.96065C3.27956 5.04313 5.04313 3.27956 7.27273 2.96065V4.36364H8.72727V2.96065C10.9569 3.27956 12.7204 5.04313 13.0393 7.27273H11.6364V8.72727H13.0393C12.7204 10.9569 10.9569 12.7204 8.72727 13.0393V11.6364H7.27273V13.0393C5.04313 12.7204 3.27956 10.9569 2.96065 8.72727Z" fill="#D5D5D5" fill-opacity="0.5"/>
</svg>
