<svg width="41" height="41" viewBox="0 0 41 41" fill="none" xmlns="http://www.w3.org/2000/svg">
<path fill-rule="evenodd" clip-rule="evenodd" d="M17.9943 0.0970105C13.4247 0.683549 9.27512 2.72514 6.00558 5.99562C2.6898 9.31234 0.677964 13.4437 0.0995767 18.1235C-0.0331922 19.1981 -0.0331922 21.7866 0.0995767 22.8612C0.677964 27.541 2.6898 31.6724 6.00558 34.9891C9.93286 38.9175 14.9539 41 20.4982 41C26.0428 41 31.0701 38.9147 34.9892 34.9891C38.9222 31.0497 41 26.0384 41 20.4924C41 14.9465 38.9181 9.92402 34.9908 5.99562C31.675 2.6789 27.5448 0.666492 22.8663 0.0879399C21.8843 -0.0334298 18.9685 -0.0280072 17.9943 0.0970105ZM21.7084 3.23941C29.4795 3.79992 35.9011 9.43075 37.4522 17.0445C39.5327 27.2566 32.1175 37.0063 21.7089 37.7441C13.0717 38.3564 5.27392 32.4307 3.54418 23.9402C1.48039 13.8104 8.82714 4.04 19.1032 3.24838C19.6807 3.20392 20.1976 3.16162 20.2518 3.15452C20.306 3.14733 20.9615 3.18558 21.7084 3.23941ZM19.1635 8.46482C16.6494 8.92032 14.4894 10.561 13.3883 12.8513C12.6205 14.4486 12.3632 16.4447 12.8349 17.1449C13.4595 18.0719 14.8446 18.1191 15.474 17.235C15.6266 17.0205 15.7294 16.6398 15.8271 15.9271C16.0591 14.2358 16.8661 12.9596 18.1732 12.2177C19.6372 11.3867 21.5973 11.4213 22.9859 12.3026C24.5772 13.3125 25.4542 15.2856 25.0895 17.035C24.8164 18.3452 24.2279 19.0824 22.4238 20.3747C19.2219 22.6683 18.1202 24.7773 19.5119 25.9487C20.066 26.415 20.931 26.4146 21.4858 25.9476C21.6527 25.8071 21.9033 25.467 22.0426 25.192C22.3686 24.5486 23.0715 23.8692 24.2985 23.0115C25.5407 22.1432 26.8448 20.8447 27.3734 19.9497C27.5974 19.5703 27.9046 18.905 28.056 18.4712C28.308 17.7491 28.3314 17.5615 28.3327 16.2528C28.3344 14.6742 28.1795 13.9619 27.5726 12.7561C26.557 10.7385 24.6892 9.2097 22.5152 8.61636C21.8175 8.42587 19.8654 8.33763 19.1635 8.46482ZM19.7097 29.0296C19.5199 29.1117 19.197 29.3421 18.9921 29.5417C17.6617 30.8377 18.6212 33.1124 20.4982 33.1124C21.5435 33.1124 22.4551 32.3379 22.6073 31.3203C22.8425 29.7472 21.1484 28.408 19.7097 29.0296Z" fill="url(#paint0_linear_54_2829)" fill-opacity="0.22"/>
<defs>
<linearGradient id="paint0_linear_54_2829" x1="-3.04455" y1="18.6733" x2="37.5495" y2="20.703" gradientUnits="userSpaceOnUse">
<stop stop-color="white"/>
<stop offset="1" stop-color="white" stop-opacity="0"/>
</linearGradient>
</defs>
</svg>
