<svg width="1920" height="1080" viewBox="0 0 1920 1080" fill="none" xmlns="http://www.w3.org/2000/svg">
<path fill-rule="evenodd" clip-rule="evenodd" d="M48.2479 12.8188C52.4062 19.7191 59.4894 30.1863 63.9887 36.0781C80.8739 58.1966 91.0742 80.5327 96.5707 107.425C102.637 137.108 103.452 163.684 100.228 226.632C98.0839 268.504 97.8708 288.258 99.3209 310.874C105.127 401.486 146.451 465.566 181.506 438.316C197.841 425.617 203.634 399.149 197.199 366.626C194.32 352.078 185.788 324.024 175.693 295.909C162.753 259.874 158.654 244.04 156.538 221.918C154.372 199.265 158.519 174.491 169.101 146.884C180.642 116.769 188.741 100.99 222.024 43.7758C242.157 9.1665 246.474 0.987022 244.818 0.589084C243.243 0.21048 237.53 9.08594 219.926 39.2551C193.42 84.6829 189.861 91.1224 180.537 110.5C168.125 136.304 160.41 157.304 155.928 177.494C153.513 188.371 153.245 191.588 153.245 209.716C153.245 239.049 155.756 250.472 172.897 299.131C191.521 352 196.125 370.164 196.171 390.963C196.193 401.272 195.771 405.213 194.061 410.654C188.505 428.322 180.192 436.892 167.411 438.127C145.735 440.22 125.725 415.368 112.576 370.019C101.98 333.479 100.143 300.111 104.138 216.782C107.05 156.039 105.946 132.292 98.7373 100.705C96.8841 92.5868 93.7145 81.6266 91.6922 76.3503C86.637 63.1604 76.4912 45.3837 66.7943 32.7302C62.3285 26.9029 55.7935 17.2155 52.2724 11.2045C47.4923 3.04438 45.214 0.274923 43.2787 0.274923C40.8848 0.274923 41.265 1.23513 48.2479 12.8188ZM85.7782 19.2519C94.835 45.8412 99.127 56.0926 105.356 66.0056C118.197 86.4406 136.433 91.8425 154.462 80.552C167.286 72.5208 175.954 58.6671 189.837 24.0143C194.667 11.9553 198.62 1.6814 198.62 1.18196C198.62 0.682527 197.816 0.274923 196.833 0.274923C195.649 0.274923 193.362 4.64902 190.053 13.2361C173.166 57.0689 163.396 71.8087 146.868 78.3803C139.117 81.4607 132.623 81.4559 125.576 78.3594C111.919 72.3597 103.175 58.456 91.1611 23.6356C85.3913 6.91259 82.8446 0.948356 81.3095 0.56814C79.5002 0.12187 80.0619 2.46922 85.7782 19.2519ZM428.01 11.9553C434.178 49.5644 448.203 82.5691 469.448 109.471C487.546 132.389 502.284 144.071 561.142 182.144C612.639 215.456 632.958 231.785 658.101 260.059C685.242 290.581 703.732 327.401 708.222 359.869C711.97 386.954 700.13 411.612 678.639 421.487C670.493 425.229 652.636 426.458 641.277 424.061C617.993 419.144 587.879 401.285 562.012 377.053C548.001 363.927 542.598 357.779 511.946 320.078C463.66 260.691 439.591 235.677 404.402 208.319C381.799 190.745 368.535 183.81 351.611 180.716C302.825 171.799 245.434 222.89 233.874 285.529C226.991 322.83 239.422 371.337 268.719 421.49C279.292 439.589 288.129 451.731 312.774 482.015C344.19 520.623 353.994 535.779 363.663 560.678C377.44 596.162 380.221 625.973 370.644 635.516C364.329 641.806 349.596 637.815 329.596 624.396C314.755 614.438 303.369 604.467 282.475 583.127C226.331 525.786 204.637 509.458 167.574 496.639C142.845 488.086 110.522 485.472 94.1988 490.708C84.1696 493.924 74.4928 499.552 65.3614 507.475C56.9016 514.815 41.2554 540.768 32.3858 562.176C16.4129 600.723 -0.183783 664.44 0.00153779 686.497L0.0770034 695.458L1.49939 688.208C14.4021 622.437 23.9939 589.362 40.5084 553.682C56.9265 518.213 72.2078 502.845 98.2816 495.58C116.444 490.522 149.464 494.941 177.127 506.135C208.198 518.706 229.194 535.435 283.161 590.621C316.502 624.717 348.315 646.038 363.427 644.415C371.206 643.579 375.512 638.786 378.306 627.85C380.981 617.378 380.305 605.563 375.997 587.465C367.568 552.06 354.208 526.719 324.197 489.21C280.927 435.129 277.072 429.748 264.565 405.977C250.186 378.649 239.867 349.445 236.771 327.325C235.078 315.229 235.317 294.39 237.251 285.437C248.662 232.613 291.069 189.41 334.807 186.051C352.989 184.654 368.787 189.492 388.24 202.414C401.369 211.135 433.423 238.794 450.417 256.065C471.009 276.993 473.975 280.431 512.923 328.498C539.503 361.301 552.48 375.455 568.56 389.179C591.4 408.672 614.467 422.429 633.742 428.052C647.453 432.052 668.566 431.728 678.448 427.369C703.308 416.399 716.613 387.164 711.155 355.5C702.535 305.485 669.202 255.938 615.592 213.449C603.436 203.814 578.068 186.47 550.37 168.856C497.546 135.261 476.798 116.505 458.426 85.743C444.442 62.3291 434.772 35.1388 430.681 7.74069C429.867 2.28878 429.098 0.274923 427.83 0.274923C426.169 0.274923 426.177 0.77597 428.01 11.9553ZM542.188 1.48324C541.948 2.14861 541.224 9.76099 540.582 18.4028C539.087 38.4866 539.828 78.1241 541.945 91.3012C549.164 136.231 570.228 163.313 609.458 178.098C630.416 185.998 670.035 194.308 717.804 200.823C762.88 206.971 797.21 215.148 812.739 223.438C830.723 233.038 846.123 248.319 857.019 267.377C871.18 292.144 875.089 322.133 869.144 360.409C860.059 418.909 836.642 464.776 800.849 494.179C776.771 513.958 737.285 530.505 696.947 537.721C675.464 541.564 645.055 540.128 631.353 534.625C612.52 527.061 591.725 512.45 569.261 490.998C544.442 467.296 533.429 452.493 506.214 406.255C478.96 359.95 465.777 343.745 446.559 332.919C431.883 324.652 415.715 328.398 403.166 342.974C396.329 350.916 386.66 370.153 382.561 383.971C374.537 411.023 375.628 435.324 386.602 473.971C395.33 504.71 404.379 521.828 428.952 554.093C446.283 576.85 451.446 585.928 456.076 601.781C462.822 624.88 467.969 673.557 466.555 700.853C464.754 735.598 459.76 756.447 448.7 775.393C435.218 798.487 419.104 807.196 402.935 800.13C390.985 794.907 373.853 778.965 360.225 760.385C356.193 754.889 341.074 730.745 326.625 706.734C294.621 653.546 283.602 638.633 262.435 619.869C241.512 601.322 225.703 595.39 201.104 596.856C188.887 597.585 183.791 598.628 176.323 601.933C148.775 614.127 127.691 635.517 103.986 675.318C84.8296 707.483 72.9319 734.725 62.489 770.33C51.3516 808.308 47.4283 842.241 45.7805 914.87C44.2597 981.878 43.1497 993.563 36.0177 1017.66C28.2964 1043.75 19.1345 1063.55 9.00105 1076.06L6.13527 1079.6L9.3822 1079.65C12.184 1079.7 13.6274 1077.99 19.9216 1067.22C26.9972 1055.1 33.6363 1038.56 39.9142 1017.4C46.2132 996.168 47.67 979.02 49.6063 903.288C51.0077 848.464 54.2632 816.914 61.6283 786.752C65.8228 769.573 77.0777 737.399 85.676 718.011C93.3916 700.612 116.291 661.456 125.389 650.104C157.934 609.502 193.513 594.069 228.795 605.252C243.66 609.964 259.404 621.533 275.996 639.937C290.316 655.819 297.578 666.549 326.625 714.738C341.599 739.577 357.074 763.956 361.015 768.911C376.624 788.542 392.87 802.481 405.186 806.811C426.305 814.238 450.692 791.886 461.947 754.786C467.909 735.136 469.437 721.715 469.435 689.014C469.432 658.429 467.755 638.873 463.182 616.085C457.454 587.551 452.088 576.665 428.838 546.418C414.865 528.239 403.181 509.585 398.574 498.1C393.21 484.726 386.872 463.165 383.885 448.134C381.594 436.597 380.924 430.418 380.924 420.795C380.924 400.803 383.269 389.929 391.786 370.43C400.169 351.238 408.326 341.586 420.68 336.234C432.008 331.329 442.169 334.243 457.018 346.658C471.484 358.751 481.696 372.58 502.871 408.744C524.765 446.141 529.936 454 542.514 468.994C574.879 507.578 611.036 535.103 639.951 543.172C667.626 550.894 714.048 543.705 759.489 524.66C789.49 512.088 811.254 495.332 830.489 470.001C850.294 443.918 865.932 404.066 872.25 363.574C873.438 355.959 874.446 343.425 874.715 332.933C875.473 303.257 871.578 285.319 859.787 264.175C845.109 237.858 824.732 220.587 797.489 211.377C783.762 206.737 756.263 200.642 735.954 197.739C726.497 196.389 710.592 194.127 700.61 192.716C680.196 189.83 634.146 180.402 621.801 176.582C566.961 159.613 545.241 127.733 542.848 60.6906C542.344 46.5549 543.468 18.4077 545.081 4.80851C545.488 1.38174 545.254 0.274923 544.123 0.274923C543.3 0.274923 542.43 0.817859 542.188 1.48324ZM701.481 6.05549C707.997 14.4476 723.042 29.0569 734.044 37.6779C747.105 47.9131 758.853 54.8923 779.541 64.7086C827.726 87.5731 844.353 97.7729 873.99 122.656C916.215 158.108 937.123 187.106 950.778 229.155C955.174 242.692 957.25 252.948 961.919 284.191C966.508 314.897 968.395 323.243 973.923 337.267C986.042 368.013 1008.39 388.707 1032.26 391.282C1043.48 392.493 1051.33 389.946 1059.25 382.529C1070.76 371.751 1077.46 358.173 1077.46 345.621C1077.46 331.77 1071.46 320.173 1044.98 282.803C1010.82 234.596 998.469 209.463 989.758 170.431C982.141 136.304 981.91 103.726 988.993 62.9252C991.919 46.0716 996.081 28.1692 1000.56 13.17C1002.4 7.00764 1003.9 1.58635 1003.9 1.12074C1003.9 0.655139 1003.11 0.274923 1002.13 0.274923C1000.82 0.274923 999.229 4.37997 996.028 16.0136C974.527 94.1399 975.39 153.55 998.887 212.704C1006.17 231.039 1023.18 259.761 1045.02 290.612C1070.39 326.452 1075.43 336.694 1074 349.539C1073.07 357.939 1064.51 371.926 1055.99 378.993C1049.83 384.092 1048.51 384.562 1038.79 385.079C1014.05 386.399 991.099 368.09 977.652 336.308C971.928 322.78 970.374 316.13 965.331 283.57C960 249.155 958.03 239.439 953.644 225.933C940.041 184.046 918.993 154.457 877.93 119.502C848.612 94.5443 832.712 84.4944 789.927 63.8838C749.271 44.2994 730.786 31.6202 710.135 9.15039C705.56 4.17375 700.881 0.274923 699.483 0.274923C697.169 0.274923 697.31 0.68575 701.481 6.05549ZM1057.62 6.31649C1047.27 71.0869 1045.74 85.4352 1045.74 117.884C1045.74 159.842 1051.4 191.477 1065.47 228.153C1080.02 266.046 1100.31 300.475 1130.75 338.915C1160.47 376.442 1179.45 393.236 1214.84 413.32C1252.96 434.957 1264.02 444.362 1277.59 466.702C1286.09 480.687 1288.75 487.883 1291.07 503.178C1295.66 533.381 1285.8 561.93 1257.53 600.336C1249 611.912 1244.81 616.948 1207.85 659.983C1148.06 729.606 1120.81 773.641 1112.89 813.418C1110.1 827.427 1110.28 837.306 1113.52 847.767C1116.93 858.77 1122.73 865.5 1133.03 870.409C1140.28 873.865 1142.77 874.193 1161.05 874.106C1173.75 874.045 1186.01 873.003 1194.48 871.259C1256.74 858.453 1339.11 819.171 1397.47 774.456C1443.5 739.191 1476.95 697.364 1494.2 653.513C1501.39 635.257 1504.36 624.725 1508.02 604.656C1510.32 592.084 1510.56 588.243 1510.58 564.96C1510.6 540.009 1510.49 538.666 1507.41 523.072C1503.56 503.554 1500.41 492.822 1494.17 477.961C1481.15 446.974 1460.82 421.509 1426.61 393.349C1393.75 366.304 1363.13 347.438 1298.36 314.335C1259.29 294.367 1245.31 286.07 1232.21 275.076C1211.67 257.836 1204.24 242.105 1204.31 215.981C1204.4 182.398 1216.08 150.818 1238.9 122.452C1255.21 102.174 1269.34 91.2045 1311.5 66.0652C1338.02 50.254 1352.94 40.2862 1361.11 32.9252C1370.01 24.9132 1382.18 11.0917 1385.47 5.24995L1388.28 0.274923H1385.88C1384.56 0.274923 1381.8 2.67222 1379.73 5.62211C1366.5 24.4686 1352.33 35.7462 1311.5 59.9237C1266.15 86.7757 1249.71 100.143 1231.35 125.094C1215.3 146.905 1205.6 171.04 1202.03 198.058C1197.59 231.741 1204.51 255.471 1224.36 274.594C1238.79 288.496 1253.48 297.533 1299.56 320.844C1357.41 350.109 1394.41 373.117 1426.61 399.837C1460.53 427.987 1480.04 452.995 1492.75 484.612C1511.47 531.177 1512.71 589.611 1496 637.868C1473.87 701.789 1430.66 750.36 1353.05 798.579C1305.47 828.137 1245.09 854.296 1202.25 863.9C1181.46 868.561 1149.22 869.861 1138.6 866.468C1112.98 858.284 1107.68 833.038 1122.93 791.789C1130.09 772.421 1148.18 742.216 1170.6 712.239C1179.36 700.522 1199.22 676.641 1224.09 647.913C1256.63 610.34 1266.3 597.678 1277.39 578.131C1285.74 563.417 1290.19 551.992 1293.13 537.736C1295.17 527.876 1295.43 524.34 1295.02 512.154C1294.44 494.894 1291.09 482.076 1283.51 468.048C1271.08 445.058 1253.38 428.693 1222.66 411.785C1189.23 393.389 1175.31 382.838 1154.72 360.301C1104.51 305.352 1068.57 241.354 1055.81 184.2C1048.03 149.349 1046.86 109.967 1052.26 64.7183C1053.62 53.3585 1060.59 8.14024 1061.82 2.74472C1062.21 1.03697 1061.8 0.274923 1060.48 0.274923C1059.1 0.274923 1058.33 1.91017 1057.62 6.31649ZM1505.89 5.47389C1491.39 20.5794 1476.11 38.274 1467.68 49.7352C1455.41 66.4196 1441.73 90.4618 1438.07 101.773C1435.49 109.766 1435.21 112.055 1435.21 125.134C1435.22 142.29 1436.84 148.778 1444.58 162.582C1454.44 180.148 1466.2 190.932 1509.24 221.854C1559.45 257.928 1577.58 276.404 1600.01 314.354C1637.73 378.182 1659.43 462.658 1659.42 545.627C1659.42 577.676 1654.84 620.884 1648.37 649.877C1638.18 695.538 1625.16 723.188 1587.09 780.067C1553.92 829.626 1540.37 855.393 1532.62 883.699C1527.77 901.403 1526.16 914.796 1526.66 933.19C1527.03 946.821 1527.48 949.998 1530.57 960.845C1538.68 989.275 1556.54 1010.9 1586.14 1028.1C1613.6 1044.07 1633.03 1049.88 1658.74 1049.79C1677.91 1049.73 1685.64 1048.08 1703.73 1040.15C1741.44 1023.62 1798.77 970.359 1833.94 919.168C1861.54 878.991 1879.44 830.051 1885.22 778.96C1887.38 759.829 1887.38 718.872 1885.22 697.079C1879.17 636.149 1864.87 581.538 1847.99 554.904C1838.44 539.842 1829.23 533.637 1816.35 533.607C1788.66 533.542 1768.38 566.497 1763.34 619.737C1762.12 632.535 1761.88 661.981 1762.86 676.236C1763.22 681.491 1765.21 702.466 1767.27 722.846C1775.56 804.973 1774.29 852.479 1762.69 892.816C1756.7 913.681 1747.36 929.698 1735.63 939.246C1719.95 952.012 1705.51 954.195 1695.79 945.269C1680.99 931.685 1677.48 910.51 1681.62 859.789C1685.65 810.415 1692.6 771.656 1708.24 711.314C1723.88 650.969 1729.88 620.431 1736.69 566.571C1743.35 513.834 1747.7 492.266 1759.56 452.98C1775.11 401.509 1790.11 375.555 1811.16 363.729C1839.78 347.651 1867.3 358.535 1889.28 394.625C1901.38 414.485 1910.87 446.357 1917.69 490.045L1919.83 503.739L1919.91 492.635C1920.02 479.573 1917.93 466.636 1911.99 443.573C1905.06 416.64 1898.06 399.257 1888.69 385.72C1868.64 356.761 1848 345.853 1825.35 352.24C1793.65 361.18 1776.47 385.633 1756.74 449.895C1744.79 488.812 1741.3 505.946 1733.67 563.091C1726.46 617.124 1718.93 656.162 1706.68 702.974C1690.61 764.396 1684.34 797.212 1679.19 846.9C1676.33 874.543 1676.07 908.984 1678.62 921.364C1681.05 933.101 1687.53 944.702 1695.22 951.087C1700.76 955.685 1702.39 956.286 1709.25 956.231C1732.81 956.046 1755.05 932.244 1765.58 895.917C1773.74 867.778 1776.34 841.198 1775.47 794.541C1775.02 770.067 1774.23 757.96 1771.09 726.874C1766.13 677.891 1764.87 657.277 1765.64 638.131C1766.34 620.931 1768.86 601.211 1771.87 589.362C1780.77 554.367 1801.57 534.288 1823.04 539.948C1831.92 542.29 1838.18 547.636 1845.79 559.407C1872.84 601.2 1890.51 714.517 1880.95 784.873C1874.16 834.936 1855.57 882.195 1827.34 921.166C1789.08 973.989 1737.56 1020.05 1697.9 1036.87C1661.61 1052.27 1616.36 1044.17 1575.15 1014.91C1548.28 995.838 1533.59 971.462 1530.16 940.283C1528.41 924.33 1530.99 901.493 1536.69 882.344C1543.91 858.126 1563.45 822.17 1593.3 778.179C1611.42 751.482 1628.38 722.004 1635.14 705.468C1650.7 667.425 1661.41 609.471 1662.73 556.099C1664.7 477.322 1646.64 395.869 1612.16 327.99C1589.04 282.466 1563.95 254.304 1516.88 221.026C1493.05 204.175 1476.13 191.446 1469.12 185.079C1438.63 157.412 1430.52 127.91 1444.61 95.9234C1455.65 70.8549 1478.89 39.4307 1507.57 10.7905C1512.69 5.67528 1516.88 1.2158 1516.88 0.882302C1516.88 -1.55366 1509.8 1.4059 1505.89 5.47389ZM1586.03 11.9553C1572.21 35.8799 1566.64 54.6829 1565.82 80.225C1565.24 98.4609 1566.45 107.868 1571.81 126.745C1581.5 160.834 1602.23 195.079 1625.9 216.089C1651.25 238.595 1680.91 245.917 1702.83 235.081C1719.19 226.996 1734.91 205.274 1746.86 174.272C1752.19 160.454 1755.28 147.62 1758.13 127.538C1761.44 104.298 1763.39 97.1462 1768.65 88.9587C1773.61 81.2545 1776.34 80.7502 1787.3 85.519C1816.47 98.2079 1846.47 144.088 1863.96 202.756C1865.76 208.799 1869.83 225.451 1873.01 239.761C1881.88 279.68 1885.06 289.096 1895.4 306.109C1902.42 317.667 1908.84 325.795 1915.46 331.516C1919.72 335.195 1920 335.248 1920 332.398C1920 330.339 1917.92 327.344 1913.55 323.107C1909.69 319.36 1903.44 310.716 1897.96 301.548C1887.4 283.874 1883.81 273.442 1876.58 239.521C1868.16 199.954 1859.99 174.968 1846.93 148.751C1827.38 109.497 1806.51 86.0958 1784.01 78.1854C1775.16 75.0711 1771.79 76.2827 1766.51 84.4895C1760.79 93.3827 1758.35 102.023 1754.89 125.687C1750.47 155.944 1744.71 173.919 1732.09 196.917C1725.34 209.21 1711.37 224.863 1703.19 229.292C1694.32 234.093 1673.38 235.255 1661.82 231.588C1622.79 219.213 1583.41 167.077 1571.74 112.336C1564.42 77.9904 1571.09 43.0847 1590.95 11.8022C1597.88 0.890358 1598.12 0.274923 1595.52 0.274923C1593.37 0.274923 1591.32 2.8011 1586.03 11.9553ZM1631.04 5.07273C1630.69 7.71169 1630.69 14.0561 1631.04 19.1697C1633.61 57.6779 1647.71 87.1945 1669.41 99.5129C1676.36 103.46 1677.75 103.703 1689.3 102.985C1700.27 102.302 1702.95 101.535 1712.23 96.4019C1724.85 89.4211 1742.63 74.7473 1761.43 55.8009C1778.72 38.3642 1782.54 35.084 1789.6 31.6282C1800.96 26.0571 1819.96 31.77 1831.64 44.272C1842.98 56.4067 1850.32 71.8619 1861.19 106.484C1865.2 119.266 1870.39 134.214 1872.71 139.703C1880.31 157.675 1892.5 173.537 1907.9 185.5C1918.89 194.035 1920 194.512 1920 190.71C1920 188.475 1918.72 186.79 1915.46 184.726C1904.04 177.501 1891.58 164.763 1883.54 152.107C1877.89 143.209 1870.76 125.796 1865.56 108.218C1849.24 52.9832 1833.54 30.4135 1807.05 24.0964C1798.22 21.9891 1790.16 23.9015 1781.9 30.0623C1779.02 32.2082 1768.83 41.7426 1759.25 51.248C1728.21 82.0632 1711.18 93.9112 1692.99 97.3379C1684.62 98.9152 1682.2 98.7911 1675.77 96.4583C1651.2 87.5345 1634.38 52.6674 1634.38 10.668C1634.38 2.76244 1634.05 0.274923 1633.02 0.274923C1632.27 0.274923 1631.38 2.43378 1631.04 5.07273ZM1880.94 10.3442C1888.41 35.3837 1899.73 58.5478 1912.29 74.4557C1919.25 83.278 1920 83.7662 1920 79.4855C1920 77.723 1917.91 74.098 1914.81 70.4973C1908.37 63.0218 1895.83 41.1143 1891.22 29.2744C1889.32 24.4009 1886.41 15.8831 1884.76 10.3442C1882.59 3.03632 1881.24 0.274923 1879.85 0.274923C1878.06 0.274923 1878.12 0.888746 1880.94 10.3442ZM617.024 701.332C584.342 706.402 555.789 721.999 539.476 743.694C529.222 757.333 521.525 775.933 517.104 797.762C514.47 810.77 514.835 833.6 518.072 858.177C521.68 885.569 524.367 914.543 524.347 925.843C524.292 958.875 516.268 979.945 500.345 988.877C492.904 993.053 491.263 993.36 476.124 993.431C457.594 993.52 449.646 990.916 434.197 979.703C418.275 968.147 409.285 957.771 379.25 916.296C310.001 820.67 294.221 800.902 273.608 783.961C249.583 764.217 223.4 758.266 197.187 766.594C179.417 772.239 157.261 787.887 142.738 805.049C133.123 816.41 121.393 836.932 117.423 849.341C114.307 859.078 114.08 860.776 114.08 874.322C114.08 887.507 114.372 889.858 117.231 899.652C120.722 911.609 124.602 920.399 135.905 941.954C144.765 958.848 151.257 973.285 153.858 981.878C160.372 1003.39 156.109 1032.21 143.871 1049.38C138.569 1056.83 124.676 1069.18 114.08 1075.88L109.303 1078.9L113.386 1079.39C117.864 1079.94 128.297 1073.19 138.244 1063.32C151.011 1050.65 159.032 1030.82 160.103 1009.28C161.14 988.437 157.14 974.561 141.189 943.658C127.803 917.726 123.501 908.089 120.089 896.402C116.154 882.919 115.818 867.441 119.206 855.587C124.256 837.912 139.16 813.992 154.112 799.565C186.102 768.696 222.649 760.781 255.458 777.615C278.892 789.639 304.927 819.911 369.134 909.787C411.473 969.051 425.219 983.563 449.411 994.548C459.81 999.27 462.13 999.747 475.168 999.832C490.026 999.929 497.267 997.896 506.939 990.91C515.988 984.375 523.952 966.554 526.389 947.391C528.321 932.205 526.951 901.899 522.868 869.455C518.248 832.738 517.804 809.429 521.429 793.734C524.719 779.486 531.286 763.671 538.424 752.806C545.825 741.54 561.133 727.596 572.932 721.371C599.354 707.431 639.869 701.253 654.28 708.965C666.726 715.627 681.585 733.889 689.197 751.881C695.314 766.338 698.636 780.898 701.998 807.974C703.556 820.522 705.533 834.776 706.393 839.65C710.536 863.133 719.608 881.773 731.842 891.943C739.025 897.912 739.386 898.034 747.604 897.28C753.14 896.771 757.951 895.248 761.681 892.825C769.432 887.789 782.06 873.03 799.112 849.08C815.424 826.168 819.533 821.168 827.855 814.1C848.513 796.557 867.149 789.967 890.707 791.878C909.769 793.423 920.479 799.015 927.164 810.91C933.131 821.524 933.232 836.212 927.477 856.08C920.152 881.364 898.051 914.349 877.76 930.278C850.259 951.867 831.518 963.217 806.726 973.296C782.647 983.086 776.325 987.905 763.022 1006.62C749.697 1025.36 738.037 1048.4 730.726 1070.44C727.884 1079 727.795 1079.7 729.546 1079.7C730.873 1079.7 732.621 1076.34 735.402 1068.45C743.125 1046.52 756.026 1022.63 769.404 1005.47C780.869 990.771 783.139 989.246 812.049 976.811C832.27 968.115 850.086 957.539 869.486 942.721C892.017 925.51 903.331 912.777 917.131 889.109C923.74 877.771 926.319 871.873 929.943 859.8C937.095 835.982 937.08 821.288 929.89 807.802C924.806 798.264 917.057 791.936 906.613 788.794C897.956 786.191 871.4 785.803 862.526 788.152C849.44 791.614 826.44 806.824 816.026 818.901C813.493 821.838 805.187 832.977 797.569 843.653C774.129 876.505 765.828 885.58 754.922 890.285C746.915 893.737 742.666 893.418 736.112 888.873C728.314 883.467 723.393 877.335 718.587 867.038C712.727 854.485 709.38 839.568 705.574 809.039C701.808 778.819 699.227 766.919 693.033 751.205C683.539 727.121 665.188 706.114 649.166 700.989C643.616 699.213 629.721 699.362 617.024 701.332ZM620.13 832.426C612.16 835.347 605.482 841.669 598.09 853.294C586.645 871.292 581.893 886.01 573.364 929.871C565.562 969.998 562.155 981.628 553.769 996.773C544.443 1013.62 534.308 1024.58 522.454 1030.64C502.045 1041.09 442.726 1046.8 420.718 1040.45C395.924 1033.28 370.898 1017.52 353.718 998.24C343.418 986.681 332.358 968.941 318.297 941.424C292.9 891.722 281.44 874.488 265.011 861.284C251.949 850.784 243.71 847.227 232.532 847.253C221.236 847.28 214.906 851.264 207.306 863.13C200.038 874.48 197.264 884.66 197.245 900.066C197.226 914.227 199.714 928.024 207.349 956.115C214.867 983.768 217.334 994.973 219.125 1009.59C221.038 1025.22 221.011 1052.6 219.067 1067.01C218.228 1073.23 217.78 1078.72 218.07 1079.21C222.13 1086.06 225.689 1046.98 223.527 1019.29C222.137 1001.5 218.642 983.906 210.556 954.021C202.886 925.671 200.528 913.019 200.54 900.299C200.557 882.502 207.705 865.004 218.125 857.254C231.733 847.132 254.927 854.718 273.61 875.403C283.777 886.66 293.293 902.231 311.821 937.926C329.947 972.846 340.907 990.795 351.191 1002.4C366.517 1019.68 390.474 1035.89 412.471 1043.85C423.859 1047.97 425.939 1048.21 449.376 1048.18C484.234 1048.14 514.803 1042.43 528.055 1033.49C538.64 1026.35 545.507 1018.49 554.457 1003.29C565.089 985.221 567.884 976.196 576.434 932.302C579.853 914.757 584.473 894.609 586.703 887.53C591.341 872.796 600.478 855.274 607.467 847.71C624.964 828.775 651.182 834.395 662.019 859.405C668.396 874.122 669.56 883.658 670.522 929.065C671.23 962.471 671.747 971.127 674.329 992.703C678.836 1030.38 677.284 1040.99 662.044 1076.64C660.875 1079.37 660.944 1079.7 662.691 1079.7C665.483 1079.7 669.919 1069.99 675.055 1052.65C679.108 1038.95 679.52 1036.47 679.871 1023.65C680.131 1014.12 679.744 1006 678.666 998.342C675.394 975.115 674.453 961.583 673.833 928.857C673.159 893.323 671.833 877.469 668.589 866.167C662.372 844.506 646.648 829.635 630.461 830.111C628.062 830.182 623.413 831.224 620.13 832.426ZM1415.32 848.725C1399.4 853.591 1383.73 863.819 1368.81 879.092C1357.53 890.652 1349.91 901.669 1343.81 915.248C1337.43 929.463 1334.2 941.578 1330.67 964.509C1325.32 999.252 1320.16 1012.31 1305.11 1029.2C1284.08 1052.79 1259.83 1060.17 1209.76 1058.19C1163.47 1056.36 1151.45 1053.99 1118.54 1040.17C1063.97 1017.26 1032.27 1005.71 1014.59 1002.3C999.327 999.349 962.21 1001.08 948.978 1005.36C929.417 1011.68 913.262 1021.2 892.14 1038.83C879.665 1049.25 855.929 1073.94 854.415 1078.07C852.887 1082.24 859.172 1079.04 864.156 1073.12C871.238 1064.69 888.341 1047.6 894.528 1042.75C932.231 1013.25 958.193 1003.87 995.785 1006.17C1022.87 1007.82 1041.43 1013.8 1113.44 1044.06C1143.93 1056.88 1153.69 1059.53 1178.72 1061.83C1214.22 1065.09 1226.33 1065.44 1242.24 1063.67C1269.76 1060.61 1282.17 1056.13 1296.53 1044.08C1317.36 1026.59 1328.14 1005.62 1332.87 973.37C1337.57 941.348 1340.38 930.879 1348.93 913.557C1357.61 895.97 1377.07 874.783 1393.79 864.71C1403.29 858.983 1417.18 853.51 1426.61 851.768C1438.33 849.603 1455.52 859.842 1460.36 871.872C1462.37 876.869 1462.57 878.791 1462.13 888.788C1461.33 907.019 1453.06 940.828 1438.71 984.522C1424.87 1026.64 1419.13 1050.04 1417.04 1072.85C1416.48 1078.93 1416.62 1079.7 1418.27 1079.7C1419.81 1079.7 1420.24 1078.21 1420.73 1071.19C1421.97 1053.43 1426.73 1034.07 1440.15 992.266C1457.59 937.915 1465.55 904.844 1465.69 886.109C1465.76 876.661 1465.43 874.552 1462.91 868.521C1459.55 860.483 1451.31 852.289 1442.89 848.591C1436.02 845.582 1425.44 845.633 1415.32 848.725ZM1914.54 873.043C1905.48 896.562 1889.51 923.462 1865.96 954.862C1844.2 983.874 1839.05 990.862 1829.73 1004.04C1805.85 1037.8 1791.59 1054.81 1773.85 1070.68C1764.02 1079.47 1763.9 1079.65 1767.68 1079.68C1770.58 1079.7 1773.66 1077.66 1780.09 1071.5C1797.72 1054.61 1808.37 1041.55 1834.5 1004.76C1840.81 995.88 1853.49 978.733 1862.68 966.653C1871.88 954.573 1883.8 937.912 1889.17 929.627C1907.11 901.975 1920.47 873.592 1919.83 864.493C1919.55 860.547 1919.03 861.387 1914.54 873.043Z" fill="#14171E" fill-opacity="0.29"/>
</svg>
