<svg width="29" height="13" viewBox="0 0 29 13" fill="none" xmlns="http://www.w3.org/2000/svg">
<g opacity="0.5">
<path d="M24.6673 11.2667V4.7667C24.6673 4.64688 24.5704 4.55005 24.4506 4.55005H20.5506C20.4308 4.55005 20.334 4.6469 20.334 4.7667V11.2667C20.334 11.3865 20.4308 11.4833 20.5506 11.4833V11.7C20.4308 11.7 20.334 11.7969 20.334 11.9167V12.7833C20.334 12.9032 20.4308 13 20.5506 13H24.4506C24.5705 13 24.6673 12.9031 24.6673 12.7833V11.9167C24.6673 11.7969 24.5704 11.7001 24.4506 11.7001V11.4834C24.5704 11.4834 24.6673 11.3865 24.6673 11.2667Z" fill="white"/>
<path d="M20.7675 4.11676H24.2341C24.354 4.11676 24.4508 4.01991 24.4508 3.9001V3.68345C24.4508 2.2591 23.7702 0.898426 22.6308 0.0434475C22.5536 -0.0144011 22.4479 -0.0144011 22.3708 0.0434475C21.2313 0.898426 20.5508 2.25907 20.5508 3.68345V3.9001C20.5508 4.01991 20.6476 4.11676 20.7675 4.11676Z" fill="white"/>
<path d="M16.6673 11.2667V4.7667C16.6673 4.64688 16.5704 4.55005 16.4506 4.55005H12.5506C12.4308 4.55005 12.334 4.6469 12.334 4.7667V11.2667C12.334 11.3865 12.4308 11.4833 12.5506 11.4833V11.7C12.4308 11.7 12.334 11.7969 12.334 11.9167V12.7833C12.334 12.9032 12.4308 13 12.5506 13H16.4506C16.5705 13 16.6673 12.9031 16.6673 12.7833V11.9167C16.6673 11.7969 16.5704 11.7001 16.4506 11.7001V11.4834C16.5704 11.4834 16.6673 11.3865 16.6673 11.2667Z" fill="white"/>
<path d="M12.7675 4.11676H16.2341C16.354 4.11676 16.4508 4.01991 16.4508 3.9001V3.68345C16.4508 2.2591 15.7702 0.898426 14.6308 0.0434475C14.5536 -0.0144011 14.4479 -0.0144011 14.3708 0.0434475C13.2313 0.898426 12.5508 2.25907 12.5508 3.68345V3.9001C12.5508 4.01991 12.6476 4.11676 12.7675 4.11676Z" fill="white"/>
<path d="M8.66729 11.2667V4.7667C8.66729 4.64688 8.57044 4.55005 8.45064 4.55005H4.55064C4.43081 4.55005 4.33398 4.6469 4.33398 4.7667V11.2667C4.33398 11.3865 4.43084 11.4833 4.55064 11.4833V11.7C4.43081 11.7 4.33398 11.7969 4.33398 11.9167V12.7833C4.33398 12.9032 4.43084 13 4.55064 13H8.45064C8.57047 13 8.66729 12.9031 8.66729 12.7833V11.9167C8.66729 11.7969 8.57044 11.7001 8.45064 11.7001V11.4834C8.57044 11.4834 8.66729 11.3865 8.66729 11.2667Z" fill="white"/>
<path d="M4.76746 4.11676H8.23412C8.35395 4.11676 8.45078 4.01991 8.45078 3.9001V3.68345C8.45078 2.2591 7.77022 0.898426 6.63078 0.0434475C6.55365 -0.0144011 6.44791 -0.0144011 6.37078 0.0434475C5.23134 0.898426 4.55078 2.25907 4.55078 3.68345V3.9001C4.55081 4.01991 4.64763 4.11676 4.76746 4.11676Z" fill="white"/>
</g>
</svg>
