<svg width="36" height="41" viewBox="0 0 36 41" fill="none" xmlns="http://www.w3.org/2000/svg">
<path fill-rule="evenodd" clip-rule="evenodd" d="M8.73975 0.116108C6.33446 0.510438 3.91738 1.90097 2.38347 3.77281C0.0726103 6.59272 -0.597709 10.1722 0.547198 13.5785C1.95646 17.7716 6.03882 20.6524 10.5713 20.6525C12.2352 20.6526 13.6467 20.3332 15.1607 19.6142C17.7954 18.363 19.7384 16.1915 20.6397 13.4907C21.3331 11.4134 21.2994 8.89502 20.551 6.85729C19.2491 3.31208 16.0621 0.703238 12.3052 0.107297C11.3815 -0.0392852 9.66125 -0.03504 8.73975 0.116108ZM11.3301 3.37168C11.3757 3.42678 11.4274 3.73244 11.4451 4.05108C11.4628 4.36964 11.513 4.66496 11.5566 4.70734C11.6002 4.74971 11.9308 4.84359 12.2911 4.916C13.1589 5.09029 13.7142 5.32715 13.7706 5.5471C13.8204 5.74102 13.4364 7.02029 13.2806 7.17953C13.1985 7.26363 13.1046 7.25138 12.7771 7.11409C11.9113 6.75108 10.8422 6.62092 10.1875 6.79874C9.775 6.9108 9.46568 7.28518 9.46568 7.67238C9.46568 8.23164 9.82266 8.5035 11.4166 9.15831C12.9896 9.80447 13.6638 10.369 14.0751 11.3841C14.3149 11.9761 14.3078 12.9225 14.0589 13.5471C13.803 14.189 13.1194 14.8962 12.4548 15.2065C12.1717 15.3386 11.8836 15.4467 11.8145 15.4467C11.7453 15.4467 11.6123 15.5417 11.5191 15.6577C11.378 15.8332 11.3493 15.9822 11.3493 16.5408C11.3493 17.1885 11.3417 17.2157 11.1392 17.291C11.0237 17.3339 10.692 17.3691 10.4022 17.3691C9.66436 17.3691 9.54757 17.2445 9.54757 16.4577C9.54757 16.0731 9.51072 15.8369 9.44193 15.7811C9.38386 15.7339 9.04637 15.6368 8.69201 15.5652C7.93013 15.4113 7.25072 15.1738 6.99676 14.9727L6.81421 14.8281L7.00552 14.1162C7.21534 13.3356 7.32958 13.0437 7.42524 13.0437C7.45963 13.0437 7.77059 13.1545 8.11628 13.2898C8.79954 13.5574 9.66403 13.761 10.1264 13.7632C11.4276 13.7694 12.2064 12.7469 11.5 11.96C11.2122 11.6394 10.9061 11.4747 9.58852 10.9313C7.93168 10.2481 7.13885 9.45636 6.96793 8.31462C6.86458 7.62456 7.18201 6.55099 7.6439 6.02794C7.93291 5.70065 8.56621 5.28509 9.03294 5.11648C9.29345 5.02237 9.55273 4.88628 9.609 4.81403C9.67017 4.73561 9.71137 4.4374 9.71137 4.07327C9.71137 3.70601 9.75043 3.42558 9.80964 3.36767C9.94559 3.23471 11.2196 3.23807 11.3301 3.37168ZM27.4828 9.67535C25.5537 10.0764 23.8857 11.1251 23.2619 12.3292C23.1553 12.5349 22.9594 13.0592 22.8267 13.4943C22.2026 15.5394 21.5055 16.8347 20.2067 18.3618C18.5349 20.3274 15.9452 21.8542 13.3254 22.4186C9.97163 23.1412 6.44462 22.5019 3.59602 20.6552C3.19842 20.3975 2.84864 20.2105 2.81883 20.2396C2.69214 20.3636 2.31419 21.3983 2.09716 22.2151C1.49031 24.4996 1.57794 26.9193 2.34957 29.1798C2.64734 30.052 3.66105 32.0878 4.2064 32.9084C4.60392 33.5066 5.16736 34.2042 6.11506 35.2713C7.05548 36.3304 7.70753 37.9439 7.79836 39.4365C7.85241 40.324 7.94266 40.6289 8.21324 40.837C8.41512 40.9923 8.53919 40.9985 11.4793 40.9985C13.6145 40.9985 14.598 40.9706 14.743 40.906C15.1123 40.7414 15.2217 40.4701 15.2639 39.6139L15.3027 38.8242L15.9262 38.8897C16.2691 38.9257 17.218 38.9489 18.0348 38.9412L19.5199 38.9272L19.5537 39.6624C19.5905 40.4621 19.708 40.742 20.0762 40.906C20.2212 40.9706 21.2047 40.9985 23.3399 40.9985C27.2025 40.9985 26.9579 41.1238 27.0128 39.1161C27.039 38.1588 27.0748 37.9088 27.2574 37.4072C27.6114 36.4345 27.9355 36.0026 29.3664 34.5967C31.1943 32.8006 32.0716 31.5542 32.8089 29.7065L33.1613 28.8233H33.9288C34.8172 28.8233 35.1739 28.6916 35.5754 28.2152C35.9532 27.7669 36 27.4301 36 25.1579C36 22.831 35.9424 22.4737 35.4952 22.0264C35.06 21.591 34.8135 21.5057 33.8855 21.469C33.0734 21.4369 33.0374 21.4278 32.9626 21.2353C32.0978 19.0106 30.9921 17.4392 29.0241 15.6379L28.4891 15.1482L28.3873 14.5081C28.2238 13.4804 28.4692 12.383 29.1111 11.2705C29.4091 10.7541 29.4349 10.3911 29.2005 10.0151C29.0375 9.75361 28.6094 9.51395 28.3249 9.52493C28.2446 9.52805 27.8657 9.59573 27.4828 9.67535ZM27.8335 19.2416C28.7484 19.6244 28.9486 20.7607 28.2153 21.4087C27.841 21.7394 27.4325 21.8332 26.9642 21.6959C26.3062 21.5031 25.923 20.8802 26.0375 20.19C26.1038 19.7909 26.3175 19.5263 26.7474 19.3115C27.162 19.1043 27.4597 19.0851 27.8335 19.2416Z" fill="white" fill-opacity="0.25"/>
</svg>
