<svg width="36" height="36" viewBox="0 0 36 36" fill="none" xmlns="http://www.w3.org/2000/svg">
<path fill-rule="evenodd" clip-rule="evenodd" d="M16.0286 0.0484948C11.8861 0.550906 8.18437 2.34404 5.26469 5.26265C2.48753 8.03865 0.804099 11.3525 0.138414 15.3537C-0.0461381 16.4631 -0.0461381 19.5231 0.138414 20.6326C0.597225 23.3901 1.45211 25.6199 2.891 27.8119C5.90763 32.4075 10.7931 35.3875 16.229 35.9477C17.2453 36.0525 19.7593 35.9914 20.711 35.8387C24.523 35.2275 28.01 33.4481 30.7356 30.7236C33.5006 27.9597 35.2093 24.5968 35.863 20.6326C36.0457 19.5251 36.0457 16.4612 35.863 15.3537C35.2086 11.385 33.511 8.04139 30.7414 5.26624C28.001 2.52036 24.5858 0.779095 20.6959 0.1445C19.8846 0.0121055 16.844 -0.0503967 16.0286 0.0484948ZM19.6919 3.70847C22.2334 4.02372 24.5566 4.96076 26.6446 6.51297C27.4342 7.09992 28.8976 8.56274 29.4848 9.35204C31.0376 11.4392 31.975 13.7615 32.2904 16.302C32.3856 17.0692 32.3856 18.9171 32.2904 19.6842C31.975 22.2247 31.0376 24.547 29.4848 26.6342C28.8976 27.4235 27.4342 28.8863 26.6446 29.4733C24.5566 31.0255 22.2334 31.9625 19.6919 32.2778C18.9245 32.3729 17.0758 32.3729 16.3084 32.2778C13.7669 31.9625 11.4437 31.0255 9.35569 29.4733C8.56607 28.8863 7.10268 27.4235 6.51551 26.6342C4.93819 24.514 4.00641 22.1809 3.70004 19.5845C3.59337 18.6799 3.65498 16.4046 3.80855 15.5781C4.2918 12.9775 5.33539 10.7397 6.9727 8.79276C9.41272 5.8914 12.6488 4.15274 16.4863 3.68151C16.9724 3.62182 19.1402 3.64005 19.6919 3.70847ZM16.1692 8.22714L16.169 9.30052L15.6212 9.55827C14.2208 10.217 13.2073 11.3972 12.789 12.8561C12.5829 13.575 12.5291 14.7645 12.6723 15.4366C13.1068 17.4759 14.6671 19.1303 16.6371 19.6406C16.8705 19.7011 17.3997 19.7799 17.8133 19.8158C18.6546 19.8888 19.0451 20.0555 19.3686 20.4795C19.922 21.2047 19.8918 22.0392 19.2879 22.7106C18.5194 23.565 17.4809 23.565 16.7124 22.7106C16.4328 22.3997 16.2398 21.9862 16.2398 21.6978C16.2398 21.5943 16.0554 21.5828 14.3989 21.5828H12.5579L12.5982 22.0631C12.7592 23.9829 13.8879 25.6126 15.6212 26.428L16.169 26.6857L16.1692 27.7591L16.1694 28.8325H18.0001H19.8309L19.8311 27.7591L19.8313 26.6857L20.3768 26.4287C21.7856 25.7649 22.8438 24.5019 23.2573 22.9905C23.4298 22.3598 23.4329 20.815 23.2629 20.1751C23.0623 19.4198 22.5462 18.4753 22.0292 17.9171C21.0244 16.8322 19.9038 16.3133 18.2574 16.1704C17.6532 16.118 17.4452 16.0697 17.197 15.9243C16.4259 15.4726 16.0789 14.6401 16.3226 13.8268C16.4313 13.4641 16.8692 12.9741 17.2486 12.7905C17.6558 12.5935 18.2738 12.5933 18.6805 12.7902C19.226 13.0541 19.7605 13.7955 19.7605 14.2884C19.7605 14.3919 19.9449 14.4035 21.6014 14.4035H23.4424L23.4021 13.9231C23.2411 12.0033 22.1124 10.3736 20.3791 9.55827L19.8313 9.30052L19.8311 8.22714L19.8309 7.15376H18.0001H16.1694L16.1692 8.22714Z" fill="white" fill-opacity="0.25"/>
</svg>
