<svg width="23" height="23" viewBox="0 0 23 23" fill="none" xmlns="http://www.w3.org/2000/svg">
<path fill-rule="evenodd" clip-rule="evenodd" d="M0 11.5C0 5.14872 5.14873 0 11.5 0C14.55 0 17.4751 1.2116 19.6317 3.36827C21.7884 5.52494 23 8.45001 23 11.5C23 17.8513 17.8513 23 11.5 23C5.14873 23 0 17.8513 0 11.5ZM2.09429 11.5004C2.09429 16.6969 6.30688 20.9095 11.5034 20.9095C16.6999 20.9095 20.9125 16.6969 20.9125 11.5004C20.9125 6.30388 16.6999 2.09129 11.5034 2.09129C6.30688 2.09129 2.09429 6.30388 2.09429 11.5004Z" fill="white"/>
<path d="M15.6833 10.6008H12.547V5.22716C12.547 4.64977 12.0789 4.1817 11.5015 4.1817C10.9241 4.1817 10.4561 4.64977 10.4561 5.22716V11.4999C10.4561 11.4999 10.4561 11.5522 10.4561 11.5731C10.4561 11.594 10.4561 11.5731 10.4561 11.6462C10.4561 12.2236 10.9241 12.6917 11.5015 12.6917H15.6833C16.2607 12.6917 16.7288 12.2236 16.7288 11.6462C16.7288 11.0689 16.2607 10.6008 15.6833 10.6008Z" fill="white"/>
</svg>
