<svg width="15" height="13" viewBox="0 0 15 13" fill="none" xmlns="http://www.w3.org/2000/svg">
<path d="M11.0931 7.04567L11.1197 5.19375L13.2744 6.98354C13.3825 7.07334 13.5251 7.11909 13.6685 7.12051C13.8118 7.12194 13.9558 7.07904 14.0664 6.99141C14.2877 6.81623 14.2918 6.52866 14.0757 6.34918L11.1382 3.90916L11.1421 3.63551L11.1733 1.4629C11.184 0.716632 10.3888 0.101524 9.40078 0.0916997L5.1068 0.0490025C4.11876 0.0391779 3.30612 0.638298 3.29541 1.38456L3.2642 3.55718L3.26027 3.83082L0.253536 6.21174C0.0322952 6.38693 0.0281648 6.6745 0.244312 6.85397C0.352423 6.94371 0.495142 6.98952 0.638424 6.99095C0.781706 6.99237 0.925699 6.94947 1.03636 6.86185L3.24182 5.11541L3.21522 6.96739L0.208485 9.34837C-0.0127559 9.52356 -0.0168862 9.81113 0.199335 9.99067C0.30737 10.0805 0.45009 10.1262 0.593372 10.1276C0.736654 10.1291 0.880647 10.0862 0.991306 9.99854L3.19677 8.25205L3.17504 9.76468L3.15578 11.1055C3.14507 11.8518 3.94026 12.4669 4.9283 12.4767L9.22229 12.5194C10.2103 12.5292 11.023 11.9301 11.0337 11.1839L11.0529 9.84296L11.0747 8.33032L13.2293 10.1202C13.3374 10.21 13.4801 10.2557 13.6235 10.2571C13.7667 10.2586 13.9107 10.2157 14.0213 10.128C14.2426 9.95286 14.2468 9.66535 14.0306 9.48575L11.0931 7.04567ZM9.97044 7.22285L9.93949 9.37767L4.30154 9.32161L4.33249 7.16679C4.33249 7.16691 4.33249 7.16667 4.33249 7.16679L4.37754 4.0304C4.37754 4.03058 4.37754 4.03022 4.37754 4.0304L4.37765 4.02247L10.0156 4.07853L10.0155 4.08586C10.0155 4.08568 10.0155 4.08604 10.0155 4.08586L9.97044 7.22285C9.97044 7.22273 9.97044 7.22292 9.97044 7.22285ZM5.09376 0.957311L9.38774 1.00001C9.75203 1.00363 10.0568 1.21052 10.0533 1.45176L10.0286 3.17022L4.3907 3.11416L4.41538 1.3957C4.41884 1.15445 4.72947 0.953689 5.09376 0.957311ZM9.23533 11.611L4.94135 11.5683C4.57706 11.5647 4.2723 11.3578 4.27576 11.1165L4.28849 10.2299L9.92644 10.286L9.91371 11.1727C9.91024 11.4139 9.59962 11.6146 9.23533 11.611Z" fill="white"/>
</svg>
