<svg width="17" height="17" viewBox="0 0 17 17" fill="none" xmlns="http://www.w3.org/2000/svg">
<g clip-path="url(#clip0_54_3020)">
<path d="M13.9718 5.77378C13.7138 5.77378 13.5047 5.98288 13.5047 6.24079V6.7078H12.5707V6.24079C12.5707 5.98288 12.3616 5.77378 12.1037 5.77378H11.3631L10.5659 4.97654C10.4783 4.88896 10.3596 4.83976 10.2357 4.83976H9.76867V3.90574H10.2357C10.4936 3.90574 10.7027 3.69665 10.7027 3.43874C10.7027 3.18082 10.4936 2.97173 10.2357 2.97173H5.50332C5.2454 2.97173 5.03631 3.18082 5.03631 3.43874C5.03631 3.69665 5.2454 3.90574 5.50332 3.90574H5.97033V4.83976H5.50332C5.37943 4.83976 5.26069 4.88896 5.17311 4.97654L4.37586 5.77378H2.70126C2.44335 5.77378 2.23425 5.98288 2.23425 6.24079V8.10883H1.30023V6.24079C1.30023 5.98288 1.09113 5.77378 0.833221 5.77378C0.575307 5.77378 0.366211 5.98288 0.366211 6.24079V10.9109C0.366211 11.1688 0.575307 11.3779 0.833221 11.3779C1.09113 11.3779 1.30023 11.1688 1.30023 10.9109V9.04285H2.23425V10.9109C2.23425 11.1688 2.44335 11.3779 2.70126 11.3779H4.37586L6.10713 13.1092C6.19471 13.1967 6.31345 13.2459 6.43734 13.2459H11.1697C11.3466 13.2459 11.5083 13.146 11.5874 12.9878L12.3924 11.3779H13.5047V11.8449C13.5047 12.1028 13.7138 12.3119 13.9718 12.3119C15.2593 12.3119 16.3068 11.2644 16.3068 9.97687V8.10883C16.3068 6.82129 15.2593 5.77378 13.9718 5.77378ZM4.10229 10.4439H3.16827V6.7078H4.10229V10.4439ZM6.90435 3.90574H8.83465V4.83976H6.90435V3.90574ZM11.6367 10.8006L10.8811 12.3119H6.63077L5.03631 10.7175V6.43423L5.69675 5.77378C5.8867 5.77378 9.87474 5.77378 10.0422 5.77378L10.8395 6.57103C10.9271 6.65861 11.0458 6.7078 11.1697 6.7078H11.6367C11.6367 6.89875 11.6367 10.6486 11.6367 10.8006ZM13.5047 10.4439H12.5707V7.64182H13.5047V10.4439ZM15.3728 9.97687C15.3728 10.5857 14.9824 11.1051 14.4388 11.2979C14.4388 10.9699 14.4388 6.91148 14.4388 6.78785C14.9824 6.9806 15.3728 7.49998 15.3728 8.10886V9.97687Z" fill="white"/>
<path d="M9.30131 8.57583H8.18892L8.78501 7.38364C8.90036 7.15294 8.80684 6.87242 8.57616 6.75707C8.34546 6.64172 8.06494 6.73525 7.94959 6.96592L7.01557 8.83396C6.86068 9.14374 7.08616 9.50985 7.43327 9.50985H8.54565L7.94956 10.702C7.83421 10.9327 7.92774 11.2133 8.15841 11.3286C8.38921 11.444 8.66969 11.3503 8.78498 11.1198L9.719 9.25172C9.87389 8.94193 9.64842 8.57583 9.30131 8.57583Z" fill="white"/>
</g>
<defs>
<clipPath id="clip0_54_3020">
<rect width="15.9406" height="15.9406" fill="white" transform="translate(0.366211 0.138596)"/>
</clipPath>
</defs>
</svg>
