<svg width="13" height="13" viewBox="0 0 13 13" fill="none" xmlns="http://www.w3.org/2000/svg">
<path fill-rule="evenodd" clip-rule="evenodd" d="M6.06927 0.359381C5.88711 0.418993 5.70358 0.562439 5.58805 0.735482C5.52935 0.823375 5.33291 1.14784 5.15151 1.45649L4.82165 2.01768L4.50705 2.14418L4.19247 2.27069L3.48066 2.07866C2.71358 1.87171 2.51368 1.84657 2.28563 1.9283C2.01621 2.02487 1.79769 2.24361 1.70245 2.51202C1.62236 2.73779 1.64274 2.90624 1.84654 3.7031L2.03794 4.45155L1.93612 4.68944C1.88013 4.82032 1.8221 4.95984 1.80718 4.99958C1.78646 5.05474 1.6258 5.1605 1.12669 5.4475C0.435286 5.8451 0.291395 5.95744 0.177905 6.18811C0.119789 6.30624 0.109375 6.36776 0.109375 6.59339C0.109375 6.81901 0.119789 6.88053 0.177905 6.99866C0.289603 7.22572 0.438337 7.34276 1.13467 7.75165L1.79587 8.1399L1.88534 8.36766C1.93455 8.49293 1.99122 8.63322 2.01126 8.67942C2.04449 8.756 2.03063 8.82645 1.85413 9.47743C1.64551 10.247 1.62018 10.4463 1.70203 10.6748C1.79859 10.9442 2.01728 11.1628 2.28563 11.2581C2.51135 11.3382 2.67977 11.3178 3.47646 11.1139L4.22475 10.9225L4.46259 11.0243C4.59344 11.0803 4.73254 11.1382 4.77179 11.153C4.82576 11.1732 4.93463 11.3387 5.21967 11.8336C5.61798 12.5252 5.73077 12.6696 5.96094 12.7829C6.07904 12.8411 6.14055 12.8515 6.36613 12.8515C6.59171 12.8515 6.65321 12.8411 6.77132 12.7829C6.99816 12.6713 7.1154 12.5224 7.52269 11.8284L7.9094 11.1696L8.22493 11.0427L8.54045 10.9158L9.25193 11.1063C10.0165 11.3109 10.2229 11.3368 10.4512 11.2562C10.7053 11.1666 10.9383 10.9326 11.0294 10.6758C11.11 10.4486 11.0898 10.2804 10.886 9.48258L10.6948 8.73418L10.7964 8.4968C10.8522 8.36623 10.9102 8.2269 10.9251 8.18717C10.9455 8.13276 11.0825 8.04011 11.4796 7.81219C12.2659 7.36082 12.368 7.29018 12.4802 7.11971C12.6039 6.93174 12.6478 6.75375 12.6305 6.51104C12.6139 6.27917 12.5303 6.09299 12.3723 5.93611C12.3097 5.87397 11.9631 5.64975 11.6 5.43658L10.9413 5.04978L10.8146 4.73453L10.6879 4.41927L10.8799 3.7073C11.0868 2.94006 11.1119 2.74011 11.0302 2.51202C10.9337 2.24255 10.715 2.02398 10.4466 1.92872C10.2209 1.84861 10.0525 1.86899 9.25579 2.07284L8.5075 2.26427L8.26966 2.16244C8.13882 2.10644 7.99949 2.04848 7.96002 2.03364C7.9054 2.01311 7.79852 1.85049 7.51272 1.353C7.11498 0.660665 7.00272 0.516995 6.77247 0.405497C6.60428 0.324072 6.24849 0.30072 6.06927 0.359381ZM6.97713 4.29643C7.82492 4.53743 8.42181 5.13798 8.66766 5.99729C8.75693 6.30941 8.75693 6.87737 8.66766 7.18949C8.42019 8.05453 7.82696 8.64789 6.9621 8.89541C6.65005 8.9847 6.08221 8.9847 5.77015 8.89541C4.92416 8.65326 4.33286 8.07618 4.08019 7.24599C4.01356 7.02709 4.00513 6.95378 4.00513 6.59339C4.00513 6.23299 4.01356 6.15969 4.08019 5.94078C4.20745 5.52265 4.40162 5.19608 4.69444 4.90774C5.05263 4.55499 5.48408 4.33334 5.99268 4.24077C6.21392 4.2005 6.74539 4.23055 6.97713 4.29643Z" fill="black" fill-opacity="0.74"/>
</svg>
