<svg width="16" height="13" viewBox="0 0 16 13" fill="none" xmlns="http://www.w3.org/2000/svg">
<path d="M9.84873 8.80238H15.1682V9.95879H9.66669C9.73354 9.60351 9.79633 9.21582 9.84873 8.80238ZM9.99328 6.5763C9.99328 6.77156 9.98967 6.96433 9.98312 7.15451H15.1682V5.9981H9.98312C9.98967 6.18816 9.99328 6.38105 9.99328 6.5763ZM9.6502 3.10709C9.71841 3.46101 9.78312 3.84881 9.83755 4.26349H15.1682V3.10709H9.6502ZM8.00232 11.8282C8.03643 11.7319 8.83688 9.43536 8.83688 6.5763C8.83688 3.71725 8.03643 1.42059 8.00232 1.32426L7.85687 0.912857L7.42141 0.93996C7.35094 0.944365 5.67596 1.05537 3.97715 1.76808C1.61488 2.75893 0.366211 4.4216 0.366211 6.5763C0.366211 8.7309 1.61488 10.3936 3.97715 11.3845C5.67596 12.0971 7.35083 12.2082 7.4213 12.2126L7.85687 12.2398L8.00232 11.8282ZM7.68047 6.5763C7.68047 8.53372 7.26602 10.2409 7.04592 11.0096C6.47178 10.9321 5.4274 10.7427 4.40008 10.308C2.49077 9.49961 1.52262 8.24417 1.52262 6.5763C1.52262 4.90844 2.49077 3.65288 4.40008 2.84464C5.42774 2.40963 6.47257 2.22025 7.04637 2.14289C7.26669 2.90991 7.68047 4.61245 7.68047 6.5763V6.5763Z" fill="white"/>
</svg>
