<svg width="18" height="18" viewBox="0 0 18 18" fill="none" xmlns="http://www.w3.org/2000/svg">
<path d="M14.7602 9.29645C14.7602 8.93645 14.4849 8.66116 14.1249 8.66116C13.7649 8.66116 13.4896 8.93645 13.4896 9.29645C13.4896 11.7741 11.4779 13.7858 9.00023 13.7858C6.52259 13.7858 4.51082 11.7741 4.51082 9.29645C4.51082 8.93645 4.23553 8.66116 3.87553 8.66116C3.51553 8.66116 3.24023 8.93645 3.24023 9.29645C3.24023 12.24 5.44259 14.7176 8.36494 15.0353V16.7294H6.0567C5.6967 16.7294 5.42141 17.0047 5.42141 17.3647C5.42141 17.7247 5.6967 18 6.0567 18H11.9438C12.3038 18 12.5791 17.7247 12.5791 17.3647C12.5791 17.0047 12.3038 16.7294 11.9438 16.7294H9.63553V15.0353C12.5579 14.7176 14.7602 12.24 14.7602 9.29645Z" fill="#BFFF38"/>
<path d="M8.99937 0C7.05113 0 5.46289 1.58824 5.46289 3.53647V9.27529C5.46289 11.2447 7.05113 12.8118 8.99937 12.8329C10.9476 12.8329 12.5358 11.2447 12.5358 9.29647V3.53647C12.5358 1.58824 10.9476 0 8.99937 0Z" fill="#BFFF38"/>
</svg>
