<svg width="15" height="15" viewBox="0 0 15 15" fill="none" xmlns="http://www.w3.org/2000/svg">
<path fill-rule="evenodd" clip-rule="evenodd" d="M7.19692 0.0346407C7.00515 0.0816036 6.74156 0.248056 6.60007 0.411569C6.52594 0.497259 6.0329 1.31495 5.50114 2.23418L4.53665 3.90143L2.67778 4.35079C1.34826 4.67222 0.774305 4.82373 0.662386 4.88288C0.356518 5.04449 0.082446 5.4381 0.0155649 5.81179C-0.047206 6.16272 0.0842076 6.6243 0.331768 6.92234C1.1519 7.90972 2.61885 9.67362 2.65907 9.72076C2.70928 9.77961 2.70508 9.85501 2.55044 11.6648C2.36821 13.798 2.36557 13.9492 2.5057 14.246C2.55491 14.3502 2.6421 14.4926 2.69947 14.5625C2.9842 14.9094 3.48343 15.0756 3.9142 14.9671C3.98998 14.948 4.82807 14.589 5.77665 14.1694L7.50132 13.4064L9.13833 14.1328C11.1721 15.0352 11.1134 15.0132 11.441 14.994C11.9058 14.9668 12.2773 14.7121 12.482 14.2804C12.6398 13.9475 12.6391 13.8353 12.4668 11.7719C12.3852 10.7953 12.3131 9.94707 12.3064 9.88691C12.2947 9.78117 12.3358 9.72771 13.5424 8.27964C14.8804 6.67393 14.9373 6.59265 14.9885 6.21504C15.0595 5.6912 14.7962 5.14175 14.3555 4.8939C14.1919 4.80193 13.9827 4.74686 11.9254 4.25426L10.4624 3.90397L9.48389 2.20461C8.77004 0.964868 8.46732 0.466124 8.36462 0.360534C8.07281 0.0605407 7.6141 -0.0674593 7.19692 0.0346407Z" fill="#FFD028"/>
</svg>
