<svg xmlns="http://www.w3.org/2000/svg" width="1283" height="355.5"><defs><radialGradient id="b" cx="641.9" cy="303.882" fx="635.338" fy="287.866" r="33.219" gradientTransform="matrix(.989 0 0 .989 -2.613 -.963)" gradientUnits="userSpaceOnUse"><stop offset="0" stop-color="#ff6cbd"/><stop offset="1" stop-color="#DF005B"/></radialGradient><filter id="a" x="1041.711" y="0" width="111.138" height="110.4" filterUnits="userSpaceOnUse"><feOffset/><feGaussianBlur stdDeviation="7.5" result="blur"/><feFlood flood-color="#DF005B"/><feComposite operator="in" in2="blur"/><feComposite in="SourceGraphic"/></filter></defs><path data-name="Path 7197" d="M400.379 100.014c24.359 0 42.518 8.563 54.328 25.54l4.872-21.111h56.4l-39.565 178.19h-56.548l4.429-20.668c-14.468 16.682-31.446 25.1-50.933 25.1-20.373 0-36.612-6.5-48.718-19.339-12.106-12.991-18.158-31-18.158-54.476a138.421 138.421 0 0110.186-52.261 105.872 105.872 0 0132.184-43.256c14.615-11.814 31.741-17.719 51.523-17.719zm9.891 50.194c-12.991 0-23.769 5.019-32.331 14.911s-12.7 22.145-12.7 36.317c0 10.63 3.4 19.192 10.039 25.688s14.911 9.743 24.8 9.743c12.991 0 24.211-5.61 33.66-16.682l12.253-53.885c-8.705-10.777-20.515-16.092-35.721-16.092z" fill="#fff"/><path data-name="Path 7200" d="M834.07 287.062a139.708 139.708 0 01-48.57-8.562 111.919 111.919 0 01-39.713-24.065l29.969-36.617c6.348 6.644 15.649 12.992 27.9 18.9s24.063 8.858 35.579 8.858c5.61 0 10.187-1.181 13.729-3.691 3.4-2.51 5.167-5.61 5.167-9.3 0-4.872-4.576-9.3-13.877-12.992a245.613 245.613 0 00-30.412-9.743 72.2 72.2 0 01-30.412-16.387 39.741 39.741 0 01-13.877-31c0-17.273 6.791-32.035 20.521-44.289s32.334-18.456 55.954-18.456a128.088 128.088 0 0143.551 7.529 103.344 103.344 0 0135.874 21.259l-27.312 35.136c-5.167-5.61-12.7-10.777-22.588-15.354a69.394 69.394 0 00-29.526-6.791c-6.2 0-11.072 1.181-14.615 3.691s-5.315 5.462-5.315 8.858 3.1 6.5 9.3 9.005a169.679 169.679 0 0022.292 7.529 218.8 218.8 0 0125.982 9.3 60.275 60.275 0 0122.145 16.387c6.2 7.234 9.3 16.092 9.3 26.426 0 18.454-7.382 33.807-22 45.913-14.757 12.403-34.391 18.456-59.046 18.456z" fill="#fff"/><path data-name="Path 7199" d="M673.669 287.066q-43.182 0-69.091-21.406c-17.272-14.32-25.835-34.1-25.835-59.5q0-43.846 29.673-75.144 29.674-31.224 74.7-31.15c23.326 0 42.813 7.086 58.462 21.406s23.473 33.955 23.473 59.052a134.544 134.544 0 01-3.691 31H635.138v2.214c0 5.905 3.838 12.253 11.663 19.192s18.158 10.334 31.15 10.334c17.716 0 31.593-3.691 41.78-11.073l17.42 37.646c-16.978 11.667-38.089 17.429-63.482 17.429zm-32.774-112.5h73.815q.443-.443.443-2.657c0-6.938-2.952-13.287-8.71-19.192s-14.32-8.858-25.688-8.858a39.236 39.236 0 00-26.278 9.6c-7.381 6.345-11.958 13.431-13.582 21.107z" fill="#fff"/><path data-name="Path 7198" d="M478.13 355.5c-24.064 0-41.78-4.888-53.147-14.813l22.883-40.736c5.167 5.925 12.4 8.888 21.849 8.888 13.287 0 22-9.184 26.278-27.4l39.565-177.462h56.838l-39.713 177.457q-15.944 73.992-74.553 74.066zm92.712-267.378c-8.562 0-15.649-2.815-21.259-8.3a26.677 26.677 0 01-8.267-19.85c0-11.406 3.838-20.443 11.663-27.257S569.218 22.5 578.223 22.5c8.415 0 15.354 2.666 20.816 8.147a26.263 26.263 0 018.267 19.553c0 11.406-3.838 20.442-11.515 27.4-7.529 7.115-15.944 10.522-24.949 10.522z" fill="#fff"/><g transform="translate(0 -.005)" filter="url(#a)"><path data-name="Path 7203" d="M942.338 417.955c0 11.368-3.838 20.373-11.515 27.312s-15.944 10.334-25.1 10.334c-8.563 0-15.649-2.8-21.259-8.267a26.542 26.542 0 01-8.267-19.782c0-11.367 3.838-20.373 11.663-27.164S904.1 390.2 913.107 390.2c8.415 0 15.354 2.657 20.816 8.119a26.362 26.362 0 018.415 19.636z" transform="translate(188.01 -367.7)" fill="url(#b)"/></g><path data-name="Path 7196" d="M279.465 282.034h-63.481l35.874-162.836-98.322 162.836h-28.05L99.208 119.198 63.481 282.034H0l54.328-246.1h85.921l21.406 136.115L243.3 35.934h90.35z" fill="#fff"/><path data-name="Path 7201" d="M989.02 286.463c-18.011 0-32.331-3.543-42.96-10.482s-16.092-17.568-16.092-31.593a91.773 91.773 0 011.181-12.992l17.42-78.687h-29.526l11.072-49.161h29.528l10.776-48.717h56.69l-10.777 48.718h36.169l-11.073 49.161h-36.168l-13.287 60.529a33.7 33.7 0 00-1.181 8.12c0 9.891 5.61 14.763 16.978 14.763 4.872 0 8.563-1.033 11.072-2.953l.739 45.47c-6.497 5.315-16.683 7.824-30.561 7.824z" fill="#fff"/><path data-name="Path 7202" d="M1058.306 104.44l-39.417 178.191h56.838l39.562-178.338h-56.983z" fill="#fff"/><path data-name="Path 7204" d="M1192.651 287.062q-41.41 0-66.138-22.735c-16.535-15.206-24.8-34.841-24.8-59.2q0-44.289 30.412-74.7 30.338-30.338 75.144-30.412 53.811 0 75.734 36.17l-42.518 32.183q-11.072-18.158-33.66-18.158c-13.729 0-25.1 5.019-34.1 14.911-9.005 10.039-13.434 22.145-13.434 36.76q0 16.165 11.072 25.688c7.377 6.345 16.678 9.445 27.747 9.445q19.487 0 33.66-15.944l30.707 37.351q-11.072 11.736-29.231 20.373c-11.955 5.463-25.536 8.268-40.595 8.268z" fill="#fff"/></svg>