<svg width="10" height="14" viewBox="0 0 10 14" fill="none" xmlns="http://www.w3.org/2000/svg">
<g clip-path="url(#clip0_2_60)">
<path d="M4.2424 12.1333V5.13334C4.2424 5.00429 4.14758 4.90002 4.03029 4.90002H0.21211C0.0947963 4.90002 0 5.00432 0 5.13334V12.1333C0 12.2624 0.0948216 12.3666 0.21211 12.3666V12.6C0.0947963 12.6 0 12.7043 0 12.8333V13.7666C0 13.8957 0.0948216 13.9999 0.21211 13.9999H4.03029C4.1476 13.9999 4.2424 13.8956 4.2424 13.7666V12.8333C4.2424 12.7043 4.14758 12.6 4.03029 12.6V12.3667C4.14758 12.3667 4.2424 12.2624 4.2424 12.1333Z" fill="#FFC83A"/>
<path d="M0.424294 4.4334H3.81823C3.93554 4.4334 4.03034 4.32909 4.03034 4.20008V3.96676C4.03034 2.43284 3.36406 0.9675 2.24852 0.0467544C2.17301 -0.0155441 2.06949 -0.0155441 1.99398 0.0467544C0.878435 0.9675 0.212158 2.43281 0.212158 3.96676V4.20008C0.212183 4.32909 0.30698 4.4334 0.424294 4.4334Z" fill="#FFC83A"/>
<path d="M9.69699 12.1333V5.13334C9.69699 5.00429 9.60217 4.90002 9.48488 4.90002H5.6667C5.54939 4.90002 5.45459 5.00432 5.45459 5.13334V12.1333C5.45459 12.2624 5.54941 12.3666 5.6667 12.3666V12.6C5.54939 12.6 5.45459 12.7043 5.45459 12.8333V13.7666C5.45459 13.8957 5.54941 13.9999 5.6667 13.9999H9.48488C9.60219 13.9999 9.69699 13.8956 9.69699 13.7666V12.8333C9.69699 12.7043 9.60217 12.6 9.48488 12.6V12.3667C9.60217 12.3667 9.69699 12.2624 9.69699 12.1333Z" fill="#FFC83A"/>
<path d="M5.87888 4.4334H9.27282C9.39013 4.4334 9.48493 4.32909 9.48493 4.20008V3.96676C9.48493 2.43284 8.81865 0.9675 7.70311 0.0467544C7.6276 -0.0155441 7.52408 -0.0155441 7.44857 0.0467544C6.33303 0.9675 5.66675 2.43281 5.66675 3.96676V4.20008C5.66677 4.32909 5.76157 4.4334 5.87888 4.4334Z" fill="#FFC83A"/>
</g>
<defs>
<clipPath id="clip0_2_60">
<rect width="10" height="14" fill="white"/>
</clipPath>
</defs>
</svg>
