<svg width="16" height="16" viewBox="0 0 16 16" fill="none" xmlns="http://www.w3.org/2000/svg">
<g clip-path="url(#clip0_2_299)">
<path d="M2.66665 4.276L0.504654 2.11467L1.44799 1.17133L3.60932 3.33333H13.7707C13.8746 3.33333 13.977 3.35761 14.0699 3.40424C14.1628 3.45088 14.2434 3.51858 14.3055 3.60193C14.3675 3.68528 14.4092 3.78199 14.4273 3.88432C14.4453 3.98666 14.4391 4.09179 14.4093 4.19133L12.8093 9.52467C12.7682 9.66205 12.6838 9.78251 12.5687 9.86814C12.4537 9.95377 12.3141 10 12.1707 10H3.99999V11.3333H11.3333V12.6667H3.33332C3.15651 12.6667 2.98694 12.5964 2.86192 12.4714C2.73689 12.3464 2.66665 12.1768 2.66665 12V4.276ZM3.99999 4.66667V8.66667H11.6747L12.8747 4.66667H3.99999ZM3.66665 15.3333C3.40144 15.3333 3.14708 15.228 2.95955 15.0404C2.77201 14.8529 2.66665 14.5985 2.66665 14.3333C2.66665 14.0681 2.77201 13.8138 2.95955 13.6262C3.14708 13.4387 3.40144 13.3333 3.66665 13.3333C3.93187 13.3333 4.18622 13.4387 4.37376 13.6262C4.5613 13.8138 4.66665 14.0681 4.66665 14.3333C4.66665 14.5985 4.5613 14.8529 4.37376 15.0404C4.18622 15.228 3.93187 15.3333 3.66665 15.3333ZM11.6667 15.3333C11.4014 15.3333 11.1471 15.228 10.9595 15.0404C10.772 14.8529 10.6667 14.5985 10.6667 14.3333C10.6667 14.0681 10.772 13.8138 10.9595 13.6262C11.1471 13.4387 11.4014 13.3333 11.6667 13.3333C11.9319 13.3333 12.1862 13.4387 12.3738 13.6262C12.5613 13.8138 12.6667 14.0681 12.6667 14.3333C12.6667 14.5985 12.5613 14.8529 12.3738 15.0404C12.1862 15.228 11.9319 15.3333 11.6667 15.3333Z" fill="#FDFFFC"/>
</g>
<defs>
<clipPath id="clip0_2_299">
<rect width="16" height="16" fill="white"/>
</clipPath>
</defs>
</svg>
