<svg width="14" height="20" viewBox="0 0 14 20" fill="none" xmlns="http://www.w3.org/2000/svg">
<path d="M10.2487 0.888542C10.3722 0.761259 10.5377 0.69078 10.7094 0.692284C10.8812 0.693789 11.0455 0.767156 11.167 0.896584C11.2886 1.02601 11.3575 1.20115 11.3591 1.38426C11.3607 1.56738 11.2947 1.74383 11.1755 1.87561L10.109 3.01167H12.0218C12.2996 3.01167 12.5459 3.19791 12.6393 3.47541L13.7311 6.73461C13.7664 6.84004 13.7774 6.95298 13.7632 7.06389C13.749 7.1748 13.7099 7.28044 13.6494 7.37191C13.5889 7.46338 13.5086 7.53799 13.4153 7.58946C13.3221 7.64093 13.2186 7.66776 13.1136 7.66767H12.2009L10.8147 17.0262C10.6313 18.3904 9.53951 19.3076 8.22062 19.3076H5.77849C4.45872 19.3076 3.36693 18.3904 3.18525 17.0355L1.79823 7.66767H0.886364C0.781363 7.66776 0.67788 7.64093 0.584636 7.58946C0.491393 7.53799 0.411121 7.46338 0.350585 7.37191C0.29005 7.28044 0.251024 7.1748 0.236799 7.06389C0.222573 6.95298 0.233564 6.84004 0.268844 6.73461L1.36064 3.47541C1.40608 3.33961 1.48983 3.22213 1.6004 3.1391C1.71096 3.05607 1.84292 3.01156 1.97816 3.01167H8.25643L10.2487 0.888542ZM11.5606 4.40847H2.44021L1.81657 6.27087H12.1852L11.5615 4.40847H11.5606Z" fill="white" fill-opacity="0.85"/>
</svg>
