<svg width="20" height="20" viewBox="0 0 20 20" fill="none" xmlns="http://www.w3.org/2000/svg">
<path d="M17.5959 10.6795C18.2147 10.0616 18.6868 9.31261 18.977 8.48779C19.2673 7.66297 19.3683 6.78347 19.2727 5.91434C19.1771 5.04521 18.8873 4.20868 18.4247 3.46663C17.9621 2.72458 17.3385 2.09599 16.6001 1.62736C14.7296 0.390016 12.2264 0.380713 10.3373 1.59945C8.69942 2.65072 7.79675 4.28811 7.63855 5.98132C7.51757 7.20935 7.05227 8.35366 6.19613 9.20957L6.16821 9.23748C5.08873 10.3167 5.08873 11.9634 6.10307 12.9681L7.02435 13.8891C7.51191 14.3762 8.17299 14.6499 8.86227 14.6499C9.55155 14.6499 10.2126 14.3762 10.7002 13.8891C11.6029 12.9867 12.794 12.4936 14.0875 12.3541C15.3624 12.2145 16.6094 11.6563 17.5959 10.6795ZM4.66065 17.3128C4.91191 17.8338 4.82816 18.4664 4.39078 18.8943C4.20135 19.0866 3.95992 19.2193 3.6961 19.2764C3.43228 19.3334 3.15755 19.3122 2.90559 19.2154C2.65364 19.1186 2.43543 18.9504 2.27772 18.7314C2.12001 18.5124 2.02967 18.2522 2.01777 17.9826C1.74812 17.9707 1.4878 17.8804 1.26874 17.7227C1.04969 17.5651 0.881427 17.3469 0.784598 17.095C0.687769 16.8432 0.666583 16.5685 0.723638 16.3047C0.780694 16.041 0.91351 15.7996 1.1058 15.6103C1.53387 15.1823 2.17597 15.0893 2.6878 15.3405L4.99567 13.0798C5.12595 13.2565 5.27484 13.4612 5.44235 13.6286L6.36364 14.5497C6.55906 14.7357 6.74518 14.8939 6.98713 15.0335L4.66065 17.3128Z" fill="white" fill-opacity="0.85"/>
</svg>
