<svg width="19" height="19" viewBox="0 0 19 19" fill="none" xmlns="http://www.w3.org/2000/svg">
<path d="M1.81092 7.61556L2.60258 7.15111V8.90333H16.3248V7.16694L17.1059 7.61556C17.2265 7.67865 17.3669 7.69271 17.4976 7.65478C17.6283 7.61685 17.7394 7.52988 17.8075 7.41202C17.8756 7.29417 17.8956 7.15455 17.8632 7.02234C17.8308 6.89012 17.7486 6.77553 17.6337 6.7025L9.4637 2L1.28314 6.7025C1.22007 6.73549 1.16432 6.78091 1.11925 6.836C1.07419 6.8911 1.04073 6.95474 1.0209 7.02311C1.00107 7.09147 0.995268 7.16314 1.00385 7.2338C1.01243 7.30446 1.03522 7.37265 1.07084 7.43428C1.10647 7.49591 1.15419 7.54969 1.21113 7.59239C1.26808 7.6351 1.33308 7.66584 1.40221 7.68278C1.47135 7.69971 1.5432 7.70249 1.61344 7.69094C1.68367 7.67938 1.75085 7.65374 1.81092 7.61556ZM9.38453 4.21139C9.44872 4.17433 9.52153 4.15482 9.59564 4.15482C9.66976 4.15482 9.74257 4.17433 9.80675 4.21139L13.3534 6.26444H11.654L9.59564 5.08222L7.53731 6.26444H5.84314L9.38453 4.21139Z" fill="white" fill-opacity="0.6"/>
<path d="M17.3375 14.25H16.8889V13.8014C16.8889 13.6404 16.8249 13.486 16.7111 13.3722C16.5973 13.2584 16.4429 13.1944 16.2819 13.1944H14.7778V9.30472H12.6667V13.1944H10.5555V9.30472H8.44443V13.1944H6.33332V9.30472H4.22221V13.1944H2.71804C2.55707 13.1944 2.40269 13.2584 2.28887 13.3722C2.17504 13.486 2.1111 13.6404 2.1111 13.8014V14.25H1.66249C1.50151 14.25 1.34714 14.3139 1.23331 14.4278C1.11949 14.5416 1.05554 14.696 1.05554 14.8569V16.3611H17.9444V14.8569C17.9444 14.696 17.8805 14.5416 17.7667 14.4278C17.6528 14.3139 17.4985 14.25 17.3375 14.25Z" fill="white" fill-opacity="0.6"/>
</svg>
