<svg width="14" height="22" viewBox="0 0 14 22" fill="none" xmlns="http://www.w3.org/2000/svg">
<path fill-rule="evenodd" clip-rule="evenodd" d="M6.14661 0.56057C5.02005 0.740638 4.05713 1.30667 3.41072 2.16881C3.13552 2.53581 2.83326 3.17322 2.70348 3.66018L2.59458 4.06878L2.58028 7.66443C2.57079 10.0585 2.58065 11.4043 2.60981 11.6917C2.66781 12.2631 2.77486 12.6444 3.01689 13.1414C3.7602 14.6677 5.40439 15.5911 7.05217 15.4077C7.59639 15.3471 7.96949 15.2378 8.45077 14.998C9.4612 14.4944 10.2787 13.5017 10.5677 12.4272C10.7237 11.8473 10.7377 11.4177 10.7227 7.66443L10.7084 4.06878L10.5995 3.66018C10.1966 2.14809 9.07319 1.0211 7.60075 0.651646C7.2835 0.572011 6.41514 0.517627 6.14661 0.56057ZM0.43389 10.6983C0.357709 10.7376 0.241095 10.8385 0.17469 10.9226C0.0233782 11.1142 -0.000817113 11.3469 0.0641749 11.9845C0.236935 13.6788 1.02617 15.2509 2.25484 16.3482C3.20843 17.1998 4.38746 17.7659 5.6013 17.955L5.90425 18.0022L5.91507 18.9929L5.9259 19.9836L4.52152 19.9845C3.2418 19.9853 3.10252 19.9921 2.95238 20.0611C2.40987 20.3104 2.40567 21.1035 2.94548 21.3679C3.12167 21.4542 3.13783 21.4546 6.65152 21.4546C10.1652 21.4546 10.1814 21.4542 10.3576 21.3679C10.8974 21.1035 10.8932 20.3104 10.3506 20.0611C10.2005 19.9921 10.0612 19.9853 8.78151 19.9845L7.37713 19.9836L7.38796 18.9929L7.39878 18.0022L7.70173 17.955C10.6449 17.4966 12.9278 15.035 13.2389 11.9845C13.3038 11.3469 13.2797 11.1142 13.1283 10.9226C12.825 10.5385 12.3105 10.5216 11.9948 10.8854C11.8536 11.0481 11.8463 11.0793 11.782 11.7913C11.6698 13.033 11.1894 14.1048 10.3582 14.9681C9.03481 16.3423 7.16842 16.8677 5.31855 16.3868C3.61834 15.9448 2.19356 14.5378 1.70538 12.8188C1.58545 12.3965 1.53516 12.095 1.4999 11.587C1.48584 11.3847 1.4574 11.1628 1.43664 11.0937C1.39189 10.9448 1.18366 10.7309 1.02419 10.6701C0.854016 10.6052 0.589928 10.6178 0.43389 10.6983Z" fill="white"/>
</svg>
