<svg width="2108" height="1407" viewBox="0 0 2108 1407" fill="none" xmlns="http://www.w3.org/2000/svg">
<path d="M1273 729C1273 937.487 1066.23 1023 1048 1023C1029.77 1023 824 937.487 824 729C824 520.513 1048 266 1048 266C1048 266 1273 520.513 1273 729Z" fill="#FF87B5" fill-opacity="0.35"/>
<path d="M1095.35 655.97C1199.59 836.525 1063.27 1013.97 1047.49 1023.08C1031.71 1032.19 810.744 1061.03 706.5 880.47C602.256 699.914 668.99 367.5 668.99 367.5C668.99 367.5 991.102 475.414 1095.35 655.97Z" fill="#FF87B5" fill-opacity="0.35"/>
<path d="M906.47 682.5C1087.03 786.744 1057.69 1008.57 1048.58 1024.36C1039.47 1040.14 862.525 1175.59 681.97 1071.35C501.414 967.102 393 645.856 393 645.856C393 645.856 725.914 578.257 906.47 682.5Z" fill="#FF87B5" fill-opacity="0.35"/>
<path d="M1390.85 880.47C1286.6 1061.03 1064.77 1031.69 1048.99 1022.58C1033.21 1013.47 897.756 836.525 1002 655.97C1106.24 475.414 1427.49 367 1427.49 367C1427.49 367 1495.09 699.914 1390.85 880.47Z" fill="#FF87B5" fill-opacity="0.35"/>
<path d="M1415.11 1072.35C1234.56 1176.59 1057.11 1040.27 1048 1024.49C1038.89 1008.71 1010.06 787.744 1190.61 683.5C1371.17 579.256 1703.58 645.99 1703.58 645.99C1703.58 645.99 1595.67 968.102 1415.11 1072.35Z" fill="#FF87B5" fill-opacity="0.35"/>
</svg>
