<svg width="41" height="41" viewBox="0 0 41 41" fill="none" xmlns="http://www.w3.org/2000/svg">
<path fill-rule="evenodd" clip-rule="evenodd" d="M18.9795 0.0475083C13.9269 0.450701 9.25723 2.63821 5.76759 6.23646C4.22682 7.82516 3.05218 9.49635 2.08075 11.4817C1.11366 13.4582 0.529311 15.3577 0.180291 17.66C-0.060097 19.2453 -0.060097 21.7716 0.180291 23.3569C0.529311 25.6592 1.11366 27.5587 2.08075 29.5352C4.08366 33.6286 7.38703 36.9302 11.4723 38.922C13.4545 39.8884 15.3539 40.4714 17.6547 40.8198C19.241 41.0601 21.769 41.0601 23.3553 40.8198C25.656 40.4714 27.5554 39.8884 29.5376 38.922C34.9668 36.2751 38.9889 31.2948 40.4234 25.4431C40.8522 23.6934 41 22.4289 41 20.5084C41 18.588 40.8522 17.3235 40.4234 15.5738C39.7418 12.7935 38.3436 9.94696 36.5611 7.71058C33.7961 4.2416 29.7561 1.65908 25.4428 0.603072C23.4532 0.116031 20.8862 -0.104622 18.9795 0.0475083ZM14.0416 12.012C14.312 12.0861 14.8492 12.5844 17.4348 15.1585L20.5068 18.2169L23.3762 15.3594C24.9545 13.7878 26.3663 12.4413 26.5137 12.3672C26.9301 12.1581 27.585 12.1902 28.0132 12.441C28.7023 12.8446 29.0008 13.8093 28.6515 14.5036C28.5774 14.651 27.23 16.0619 25.6574 17.6391L22.798 20.5066L25.8589 23.5766C28.6032 26.3289 28.9299 26.6839 29.0163 27.0069C29.3597 28.2916 28.2932 29.3574 27.0076 29.0142C26.6845 28.9278 26.3292 28.6014 23.5751 25.8589L20.503 22.7999L17.3526 25.9384C15.6199 27.6645 14.0816 29.1374 13.9342 29.2114C13.2392 29.5604 12.274 29.262 11.8702 28.5734C11.6194 28.1456 11.5871 27.491 11.7963 27.0749C11.8703 26.9276 13.3442 25.3903 15.0715 23.6587L18.212 20.5104L15.151 17.4403C12.4068 14.688 12.0801 14.333 11.9937 14.01C11.7845 13.2275 12.1004 12.4734 12.7897 12.1098C13.177 11.9054 13.5474 11.8765 14.0416 12.012Z" fill="url(#paint0_linear_54_2788)" fill-opacity="0.22"/>
<defs>
<linearGradient id="paint0_linear_54_2788" x1="-3.04455" y1="18.6733" x2="37.5495" y2="20.703" gradientUnits="userSpaceOnUse">
<stop stop-color="white"/>
<stop offset="1" stop-color="white" stop-opacity="0"/>
</linearGradient>
</defs>
</svg>
