<svg width="41" height="41" viewBox="0 0 41 41" fill="none" xmlns="http://www.w3.org/2000/svg">
<path fill-rule="evenodd" clip-rule="evenodd" d="M18.94 0.0518367C9.31123 0.808781 1.5346 8.12416 0.159673 17.7184C-0.0543969 19.2123 -0.0530198 21.8413 0.16261 23.3106C1.51 32.4916 8.52545 39.5031 17.7008 40.8389C19.168 41.0525 21.8037 41.0539 23.2958 40.8419C30.711 39.7879 36.9152 34.8785 39.6426 27.9066C40.1472 26.6166 40.6215 24.7925 40.8374 23.3106C41.0542 21.8237 41.0542 19.2006 40.8374 17.7138C39.8421 10.8839 35.6581 5.10345 29.5425 2.10926C28.0749 1.39066 27.1421 1.04541 25.5907 0.646473C23.5212 0.114319 21.006 -0.110562 18.94 0.0518367ZM32.2735 12.2461C32.8785 12.8569 32.9849 13.0105 32.9849 13.274C32.9849 13.5624 32.4262 14.1418 24.8839 21.6757C17.6839 28.8674 16.7445 29.7743 16.4386 29.8293C15.5964 29.9807 15.7114 30.072 11.7111 26.0788C8.31506 22.6888 8.01626 22.3656 8.01626 22.083C8.01626 21.8241 8.12623 21.6626 8.71299 21.06C9.44094 20.3123 9.7189 20.1631 10.0607 20.3361C10.1732 20.3931 11.5769 21.7461 13.18 23.3428L16.0947 26.2459L23.4153 18.9397C27.4416 14.9212 30.8185 11.5878 30.9195 11.5318C31.2434 11.3521 31.5461 11.5118 32.2735 12.2461Z" fill="url(#paint0_linear_54_2802)" fill-opacity="0.22"/>
<defs>
<linearGradient id="paint0_linear_54_2802" x1="-3.04455" y1="18.6733" x2="37.5495" y2="20.703" gradientUnits="userSpaceOnUse">
<stop stop-color="white"/>
<stop offset="1" stop-color="white" stop-opacity="0"/>
</linearGradient>
</defs>
</svg>
